<svg enable-background="new 0 0 810 810" viewBox="0 0 810 810" xmlns="http://www.w3.org/2000/svg" xmlns:xlink="http://www.w3.org/1999/xlink"><symbol id="a" viewBox="0 -353.5 263.4 360.26"><path clip-rule="evenodd" d="m255.25-23.9c-.08.21-.22.41-.42.62-1.65 1.68-1.73 2.26-.23 1.73 1.26-.45 1.48-1.23.65-2.35zm2.13-4.5c-1.06-1.36-6.51-1.9-16.33-1.62-9.82.27-16.41-.03-19.75-.9-3.34-.88-5-.66-5 .67 0 2.03.3 3.3.9 3.8.5.47 1.53.53 3.1.2 1-.2 3.07.36 6.2 1.67 3.13 1.32 6.32 3.09 9.58 5.3 3.26 2.22 6.76 1.82 10.52-1.2s6.14-4.77 7.15-5.25c3.49-.41 4.7-1.31 3.63-2.67zm-125.48-1.25 5-6.25c-10.53-1.47-18.1-1.5-22.7-.1-10.7 3.27-18.43 4.9-23.2 4.9-6.53 0-12.55-1.58-18.05-4.75-3.4-1.97-8.2-5.85-14.4-11.65-6.21-5.79-12.27-10.74-18.2-14.85s-9.84-5.01-11.73-2.7c-1.89 2.3-3.26 4.12-4.12 5.45-.33.5-.5 1.25-.5 2.25 2.7 1.6 6.47 3.87 11.3 6.8 9.97 6.07 20.03 12.63 30.2 19.7 1.03.7 2.88 2.3 5.55 4.8 1.83 1.7 3.65 2.83 5.45 3.4 4.97 1.6 16.42 2.78 34.35 3.55 10.92-4.53 17.07-7.5 18.45-8.92.61-.64 1.48-1.18 2.6-1.63zm74.85-309.7c0-2.2-1.92-4.92-5.75-8.15-4.7-4-10.12-6-16.25-6-5.63 0-9.88.72-12.75 2.15-1.83.93-2.75 1.77-2.75 2.5s.25 1.23.75 1.5c.37.23.95.35 1.75.35.43 0 1.8-.22 4.1-.65 2.3-.4 3.65-.6 4.05-.6 4.4 0 10.43 2.15 18.1 6.45 3.37 1.87 5.47 2.97 6.3 3.3 1.63.6 2.45.32 2.45-.85z" fill-opacity=".298" fill-rule="evenodd"/><path clip-rule="evenodd" d="m210.5-75.05c-1.83-6.83-2.75-12.67-2.75-17.5 0-20.33 5.1-38.35 15.3-54.05 2.53-3.93 6.03-9 10.5-15.2 3.17-5 4.75-9.4 4.75-13.2 0-1.6-.48-3.78-1.45-6.55-1.27-3.7-3.07-7.1-5.4-10.2-6.87-9-16.77-13.5-29.7-13.5-7 0-11.4.65-13.2 1.95-.57.43-.87.93-.9 1.5.1.53.13.85.1.95l.4.3c.23.2.6.3 1.1.3.13 0 .98-.3 2.55-.9 2.37-.57 5.65-.85 9.85-.85 11.9 0 21 4 27.3 12 2.17 2.73 3.83 5.75 5 9.05.9 2.5 1.35 4.48 1.35 5.95 0 2.9-1.58 6.85-4.75 11.85-4.47 6.47-7.97 11.8-10.5 16-10.2 16.83-15.3 35-15.3 54.5 0 8.07 1.42 15.93 4.25 23.6 1.1 3 2.07 4.9 2.9 5.7.9.83 1.35.17 1.35-2 0-.5-.92-3.73-2.75-9.7zm-32.25-101.7c3 0 4.87-.08 5.6-.25 0-.03.07-.12.2-.25.13-.17.2-.5.2-1 0-2.03-3.38-2.62-10.15-1.75-1.63-1.27-2.87-2.82-3.7-4.65-.77-1.63-1.15-3.33-1.15-5.1 0-1.03.45-2.02 1.35-2.95 1.27-1.3 2.32-3.18 3.15-5.65-.13-.1-.33-.37-.6-.8-.33-.4-.72-.6-1.15-.6-2.1 0-3.68 1.53-4.75 4.6-.67 1.93-1 3.7-1 5.3-.13 1.5-.17 2.57-.1 3.2.1.93.72 2.37 1.85 4.3 1.33 2.4 2.18 3.73 2.55 4 1.33 1.07 3.9 1.6 7.7 1.6z" fill="#744635" fill-rule="evenodd"/><path clip-rule="evenodd" d="m259.9-93c-1.17 0-4.07.95-8.7 2.85-4.63 1.93-9.4 2.9-14.3 2.9-1.33 0-2.37-.67-3.1-2-.07-.1-.58-1.57-1.55-4.4-1.53-4.23-4.53-6.35-9-6.35-2.87 0-5.35 1.18-7.45 3.55-1.13 1.3-2.65 3.12-4.55 5.45l.75 1.5c2.2 1.13 3.95 2.9 5.25 5.3.4.8 1.32 3.17 2.75 7.1 2.4 6.5 6.48 10.92 12.25 13.25 7.17 4.43 13.78 2.93 19.85-4.5 1.93-2.4 4.08-5.77 6.45-10.1 2.87-5.3 4.48-8.23 4.85-8.8v-5.25l-.8-.25c-.77-.17-1.67-.25-2.7-.25zm-42.2-214.65c-.23-.17-.72-.32-1.45-.45-5 5.23-8.52 10.83-10.55 16.8-1.63 4.87-2.45 10.65-2.45 17.35 0 5.67.07 9.25.2 10.75.37 4.37 1.3 8.07 2.8 11.1.47-.3 1.03.67 1.7 2.9-1.87-.83-3.95-1.62-6.25-2.35-11.47-3.7-26.28-5.55-44.45-5.55-33.53 0-64.5 13.32-92.9 39.95-7.2 6.77-13.92 14.12-20.15 22.05-.73.97-1.48 1.95-2.25 2.95-.7.93-1.4 1.87-2.1 2.8-3.1 4.2-5.65 7.95-7.65 11.25.6-2.2 1.07-4.72 1.4-7.55.37-3.87.67-7.02.9-9.45.13-.9.23-1.7.3-2.4.47-4.57 1.12-8.1 1.95-10.6 2.23-6.9 4.65-13.37 7.25-19.4.03.8.12 1.25.25 1.35l.25-.2c9-11.43 20.2-21.92 33.6-31.45 26.33-18.7 55.3-28.05 86.9-28.05 1.03 0 1.72.03 2.05.1l.2.15c0-.67-.42-1.42-1.25-2.25l-15.75-.25c-17.9 0-40.62 8.83-68.15 26.5-8.37 5.4-15.78 10.77-22.25 16.1-1.67 1.4-3.28 2.8-4.85 4.2-4.03 3.57-6.97 6.53-8.8 8.9 3.03-6.43 6.3-12.33 9.8-17.7 2.2-3.4 5.7-10.33 10.5-20.8 4.3-9.3 8.47-16.6 12.5-21.9 12.97-16.87 35.13-28.5 66.5-34.9h28.25c6.23 1.33 16.3 5.33 30.2 12 6.27 3.17 11 5.55 14.2 7.15 3.27 1.63 4.97 2.45 5.1 2.45 1 0 1.58-.13 1.75-.4l.25-.35c-3.6-6.3-9.2-11.22-16.8-14.75-6.6-3.07-18.33-6.6-35.2-10.6h-28c-15.3-1.07-30.8 4.82-46.5 17.65-13.53 11.03-26.42 26.45-38.65 46.25-10.67 17.3-19.45 35.53-26.35 54.7-2.4 6.67-4.37 12.83-5.9 18.5-2.57 9.7-3.85 17.9-3.85 24.6 0 1.07.18 1.72.55 1.95.53.13 1.02.28 1.45.45 2.23-1.3 4.02-3.75 5.35-7.35l.4.85c7.37-8.3 13.53-15.13 18.5-20.5.83-.87 1.62-1.7 2.35-2.5 9.63-10.23 18.8-18.77 27.5-25.6 24.83-19.6 50.55-29.4 77.15-29.4 14.77 0 28.5 1.75 41.2 5.25 3.7 1 7.17 2.13 10.4 3.4-.03-.6-.07-1.28-.1-2.05.13.7.23 1.4.3 2.1.1.07.2.12.3.15 2.53 1.1 3.83 1.65 3.9 1.65 1.03 0 1.62-.15 1.75-.45 0-.47.08-.82.25-1.05l-.25-1.5c-1.77-1.4-3.92-2.68-6.45-3.85-.07-1.7-.17-3.63-.3-5.8-.67-12.4-1-19.02-1-19.85 0-4.63 1.83-11.02 5.5-19.15 1.83-4.1 3.67-8.08 5.5-11.95 0-1.07-.18-1.72-.55-1.95zm-113.6 240.05c13.13-.9 24.63-4.83 34.5-11.8 10.43-7.37 15.65-15.98 15.65-25.85 0-1.3-.52-2.27-1.55-2.9-.63-.4-1.78-1.02-3.45-1.85h-8c-1.27.4-5.27 2.3-12 5.7-7.6 3.2-14.97 4.8-22.1 4.8-8.33 0-17.05-3.92-26.15-11.75-2.27-1.97-5.33-4.67-9.2-8.1-3.07-2.43-5.62-3.65-7.65-3.65-6.77 0-10.15 3.47-10.15 10.4 0 16.17 5.22 28.2 15.65 36.1 9.03 6.87 20.52 9.83 34.45 8.9zm-76.1-85c-.5-1-1.5-2.17-3-3.5-7.43 2.4-13.07-.18-16.9-7.75-.43-.87-1.55-3.63-3.35-8.3-1-2.63-1.92-3.95-2.75-3.95-1.03 0-1.55.08-1.55.25 0 .07.1.15.3.25l-.75 1.6c.73 1.03 1.42 3.15 2.05 6.35.67 3.4 1.45 5.92 2.35 7.55 3.27 5.87 11.13 8.37 23.6 7.5zm179-185.85c.17-.33.25-1 .25-2-4.53-3.67-10.95-6.5-19.25-8.5-10.1 0-17.25.12-21.45.35-2.13.13-3.23.27-3.3.4 20.2 1.13 32.1 2.8 35.7 5 .03.03.88.88 2.55 2.55.93.97 2.77 1.7 5.5 2.2z" fill-rule="evenodd"/><path clip-rule="evenodd" d="m217.7-307.65.45-.9c-3.2-1.6-7.93-3.98-14.2-7.15-13.9-6.67-23.97-10.67-30.2-12h-28.25c-31.37 6.4-53.53 18.03-66.5 34.9-4.03 5.3-8.2 12.6-12.5 21.9-4.8 10.47-8.3 17.4-10.5 20.8-3.5 5.37-6.77 11.27-9.8 17.7 1.83-2.37 4.77-5.33 8.8-8.9 1.57-1.4 3.18-2.8 4.85-4.2 6.47-5.33 13.88-10.7 22.25-16.1 27.53-17.67 50.25-26.5 68.15-26.5l15.75.25c.83.83 1.25 1.58 1.25 2.25l-.2-.15c-.33-.07-1.02-.1-2.05-.1-31.6 0-60.57 9.35-86.9 28.05-13.4 9.53-24.6 20.02-33.6 31.45l-.25.2c-.13-.1-.22-.55-.25-1.35-2.6 6.03-5.02 12.5-7.25 19.4-.83 2.5-1.48 6.03-1.95 10.6-.07.7-.17 1.5-.3 2.4-.23 2.43-.53 5.58-.9 9.45-.33 2.83-.8 5.35-1.4 7.55 2-3.3 4.55-7.05 7.65-11.25.7-.93 1.4-1.87 2.1-2.8.77-1 1.52-1.98 2.25-2.95 6.23-7.93 12.95-15.28 20.15-22.05 28.4-26.63 59.37-39.95 92.9-39.95 18.17 0 32.98 1.85 44.45 5.55 2.3.73 4.38 1.52 6.25 2.35-.67-2.23-1.23-3.2-1.7-2.9-1.5-3.03-2.43-6.73-2.8-11.1-.13-1.5-.2-5.08-.2-10.75 0-6.7.82-12.48 2.45-17.35 2.03-5.97 5.55-11.57 10.55-16.8.73.13 1.22.28 1.45.45z" fill="#fff" fill-rule="evenodd"/><path clip-rule="evenodd" d="m261.4-15.15c0-3.5-.17-5.72-.5-6.65-.83-2.43-3.08-4.78-6.75-7.05-8.76 7.48-19.72 7.23-32.9-.75l-1.25-.75h-4.5c1.7 8.07 5.12 14.8 10.25 20.2 4.53 4.83 9.67 7.97 15.4 9.4 5.57 1.33 10.27.8 14.1-1.6 4.1-2.63 6.15-6.9 6.15-12.8zm-131.38-15.15c-3.97 1.71-8.51 3.94-13.63 6.67-5.11 2.74-12.62 3.76-22.52 3.05-9.91-.71-20.05-5.25-30.42-13.62s-18.57-16.55-24.6-24.55c-4.43-5.73-7.45-8.58-9.05-8.55-1.63 0-3.02.12-4.15.35-.1.34-.29.33-.57-.02-.29-.35-.67 1.4-1.15 5.25-.48 3.86 4.76 13.89 15.73 30.1 10.96 16.21 20.17 26.18 27.64 29.92 21.03 10.7 37.3 11.25 48.8 1.65 3.47-2.83 7.05-7.12 10.75-12.85.57-.87 1.13-1.75 1.7-2.65 6.6-10.73 9.1-17.32 7.5-19.75-.04 1.62-2.05 3.28-6.03 5z" fill="#3a1d00" fill-rule="evenodd"/><path clip-rule="evenodd" d="m33.6-185.65c-.33 2.83-.8 5.35-1.4 7.55 2-3.3 4.55-7.05 7.65-11.25.7-.93 1.4-1.87 2.1-2.8.77-1 1.52-1.98 2.25-2.95 6.23-7.93 12.95-15.28 20.15-22.05 28.4-26.63 59.37-39.95 92.9-39.95 18.17 0 32.98 1.85 44.45 5.55 2.3.73 4.38 1.52 6.25 2.35-.67-2.23-1.23-3.2-1.7-2.9-1.5-3.03-2.43-6.73-2.8-11.1-.13-1.5-.2-5.08-.2-10.75 0-6.7.82-12.48 2.45-17.35 2.03-5.97 5.55-11.57 10.55-16.8.73.13 1.22.28 1.45.45l.45-.9c-3.2-1.6-7.93-3.98-14.2-7.15-13.9-6.67-23.97-10.67-30.2-12h-28.25c-31.37 6.4-53.53 18.03-66.5 34.9-4.03 5.3-8.2 12.6-12.5 21.9-4.8 10.47-8.3 17.4-10.5 20.8-3.5 5.37-6.77 11.27-9.8 17.7 1.83-2.37 4.77-5.33 8.8-8.9 1.57-1.4 3.18-2.8 4.85-4.2 6.47-5.33 13.88-10.7 22.25-16.1 27.53-17.67 50.25-26.5 68.15-26.5l15.75.25c.83.83 1.25 1.58 1.25 2.25l-.2-.15c-.33-.07-1.02-.1-2.05-.1-31.6 0-60.57 9.35-86.9 28.05-13.4 9.53-24.6 20.02-33.6 31.45l-.25.2c-.13-.1-.22-.55-.25-1.35-2.6 6.03-5.02 12.5-7.25 19.4-.83 2.5-1.48 6.03-1.95 10.6-.07.7-.17 1.5-.3 2.4-.23 2.43-.53 5.58-.9 9.45z" fill="url(#b)" fill-rule="evenodd"/></symbol><linearGradient id="b" gradientUnits="userSpaceOnUse" x1="-93.475" x2="90.4259" y1="-226.4344" y2="-253.1289"><stop offset="0" stop-opacity=".298"/><stop offset="1" stop-color="#fff"/></linearGradient><symbol id="c" viewBox="-88.87 -242.56 799.26 799.26"><path d="m310.76 556.7c-220.71 0-399.63-178.92-399.63-399.63s178.93-399.63 399.63-399.63c13.05 0 25.96.63 38.69 1.86 7.76 13.43 13.85 27.44 18.25 42.06 3.3 10.97 5.72 22.58 7.25 34.85h.05c15.53-1.07 29.4-3.23 41.6-6.5 4.2-1.1 7.72-2.17 10.55-3.2-.43-4.73-.88-9.7-1.35-14.9-1.24-13.96-2.38-26.73-3.4-38.36 166.38 48.31 288 201.86 288 383.82-.01 220.71-178.93 399.63-399.64 399.63zm-141.36-716c-6.8.67-15.87-1.38-27.2-6.15-4.63-1.97-8.7-3.98-12.2-6.05-.73-.47-1.4-.9-2-1.3v1.25c0 3.9.27 7.82.8 11.75h.7c.93 0 4.07 1.25 9.4 3.75 6.63 2.5 13.67 3.75 21.1 3.75 2.9 0 6.18-.03 9.85-.1-.13-2.33-.28-4.63-.45-6.9zm16.15 6.25c-3.87-.37-6.75-1.17-8.65-2.4-1.33-1.5-2.62-2.62-3.85-3.35.27 2.07.48 4.17.65 6.3.7 0 1.42-.02 2.15-.05 2.3-.03 3.62.08 3.95.35.27.23.93 1.03 2 2.4 1 .9 2.42 1.87 4.25 2.9-.2-1.97-.37-4.02-.5-6.15zm241.2 67.9c-3.63 1-7.22 1.45-10.75 1.35v-.5c-14.27-1.8-24.92-4.58-31.95-8.35-3.33-1.8-6.37-4.28-9.1-7.45-1.7 11.3-4.42 21.6-8.15 30.9-.83 2.03-1.7 4-2.6 5.9 4.97 3.57 11.27 8.75 18.9 15.55 8.83 6.7 19.45 11.92 31.85 15.65 1.3-2.27 2.57-4.67 3.8-7.2 4.53-9.37 8.07-19.82 10.6-31.35 1.23-5.6 2.15-11.12 2.75-16.55-1.23.7-3.02 1.38-5.35 2.05z" fill="none"/><path d="m427.15-173.5c-2.83 1.03-6.35 2.1-10.55 3.2-12.2 3.27-26.07 5.43-41.6 6.5h-.05c-1.53-12.27-3.95-23.88-7.25-34.85-4.4-14.62-10.49-28.63-18.25-42.06 25.06 2.41 49.45 7.13 72.95 13.95 1.02 11.62 2.16 24.4 3.4 38.36.47 5.2.92 10.17 1.35 14.9z" fill="#5f2c4b"/><path d="m179.8-152.2c-.33-.27-1.65-.38-3.95-.35-.73.03-1.45.05-2.15.05-.17-2.13-.38-4.23-.65-6.3 1.23.73 2.52 1.85 3.85 3.35 1.9 1.23 4.78 2.03 8.65 2.4.13 2.13.3 4.18.5 6.15-1.83-1.03-3.25-2-4.25-2.9-1.07-1.37-1.73-2.17-2-2.4z" fill="#5f2c4b"/><path d="m418.75-39.3c-1.23 2.53-2.5 4.93-3.8 7.2-12.4-3.73-23.02-8.95-31.85-15.65-7.63-6.8-13.93-11.98-18.9-15.55.9-1.9 1.77-3.87 2.6-5.9 3.73-9.3 6.45-19.6 8.15-30.9 2.73 3.17 5.77 5.65 9.1 7.45 7.03 3.77 17.68 6.55 31.95 8.35v.5c3.53.1 7.12-.35 10.75-1.35 2.33-.67 4.12-1.35 5.35-2.05-.6 5.43-1.52 10.95-2.75 16.55-2.53 11.53-6.07 21.98-10.6 31.35z" fill="#5f2c4b"/><path d="m138.9-156.05c-5.33-2.5-8.47-3.75-9.4-3.75-.23 0-.47 0-.7 0-.53-3.93-.8-7.85-.8-11.75 0-.4 0-.82 0-1.25.6.4 1.27.83 2 1.3 3.5 2.07 7.57 4.08 12.2 6.05 11.33 4.77 20.4 6.82 27.2 6.15.17 2.27.32 4.57.45 6.9-3.67.07-6.95.1-9.85.1-7.43 0-14.47-1.25-21.1-3.75z" fill="#5f2c4b"/><path d="m191.05-216c-.73 3.3-1.4 6.48-2 9.55-2.7 13.87-4.05 25.5-4.05 34.9 0 4.9.1 9.55.3 13.95-1.7-.33-3.28-.8-4.75-1.4-2.03-.83-3.72-1.85-5.05-3.05-.93-.83-2.05-1.55-3.35-2.15-1.2-6.83-2-15.12-2.4-24.85-.07 0-.27-.1-.6-.3-.4-.2-.78-.35-1.15-.45-.97.43-1.58 1.1-1.85 2-.1.37-.15 1.12-.15 2.25 0 1.37.67 6.27 2 14.7.3 1.8.57 3.63.8 5.5-2.27-.57-4.88-.88-7.85-.95-3.37 0-5.77-.02-7.2-.05-2.47-.03-4.22-.27-5.25-.7-1.1-.47-4.75-2.58-10.95-6.35-5.97-3.6-8.98-5.4-9.05-5.4s-.13 0-.2 0c.35-5.52 1.05-12.48 2.1-20.84 14.1-7.14 28.67-13.47 43.66-18.93.04 2.2.1 3.91.18 5.12.4 6.7 1.32 10.58 2.75 11.65 1.63-2.13 2.75-4.25 3.35-6.35s.68-4.18.25-6.25c-.27-1.23-.8-3.15-1.6-5.75-.01-.06-.02-.11-.04-.16 3.38-1.18 6.79-2.32 10.21-3.41 1.04.54 2.14 1.01 3.33 1.37-.52 2.3-1.01 4.42-1.44 6.35z" fill="none"/><path d="m459-141.9c0 .23.07.5.2.8-8.13-.5-14.18-1.52-18.15-3.05-2.6-1.6-4.28-2.48-5.05-2.65-.83.33-1.5.75-2 1.25.67.93 1.35 2.08 2.05 3.45.63 1 1.55 1.75 2.75 2.25 2.5 1.03 9.57 2 21.2 2.9v.05c0 8.07-4.5 17.67-13.5 28.8-4.13 4.47-7.32 8.02-9.55 10.65.03-1.87.05-3.77.05-5.7 0-.77-.07-2.2-.2-4.3v-.05c-.4-6.4-1.38-19.07-2.95-38-.67-7.53-1.4-16.08-2.2-25.65.53-.43.98-.9 1.35-1.4-.07-.63-.2-1.1-.4-1.4-.23-.4-.65-.67-1.25-.8-.43-4.83-.88-9.93-1.35-15.3-.91-10.48-1.94-22.27-3.08-35.36 10.94 3.32 21.67 7.09 32.19 11.3-.74 7.74-1.11 12.69-1.11 14.82z" fill="none"/><path d="m380.8-43.6c9.5 6.9 20.57 11.27 33.2 13.1-3.67 6-7.68 10.95-12.05 14.85-7 6.23-14.48 9.35-22.45 9.35-6.6 0-12.97-2.23-19.1-6.7-5.5-4.97-8.97-7.9-10.4-8.8-.83.33-1.5.75-2 1.25.03.13.07.27.1.4-1.27-1.13-2.1-1.87-2.5-2.2-3.23-2.63-6.43-4.78-9.6-6.45-.17 0-.33.02-.5.05 11.47-7.9 20.58-18.5 27.35-31.8 7.9 8.33 13.88 13.98 17.95 16.95z" fill="none"/><path d="m223.85-20.75c-.1.07-.18.13-.25.2-.2-.1-.4-.18-.6-.25-.8.33-1.45.73-1.95 1.2-24.77-6.8-40.62-14.23-47.55-22.3-3.07-3.6-5.02-7.9-5.85-12.9-.43-2.63-.65-7.63-.65-15 0-5.7 1.17-15.97 3.5-30.8.5-3.2.95-6.38 1.35-9.55.6.23 1.23.52 1.9.85.97.47 2.55 1.28 4.75 2.45 4.77 2.1 10.6 2.45 17.5 1.05.1-.07.23-.17.4-.3.37.9.75 1.8 1.15 2.7 6.17 14.13 10.35 24.33 12.55 30.6 5.2 14.77 9.78 32.12 13.75 52.05z" fill="none"/><path d="m179.8-152.2c-.33-.27-1.65-.38-3.95-.35-.73.03-1.45.05-2.15.05-.17-2.13-.38-4.23-.65-6.3 1.23.73 2.52 1.85 3.85 3.35 1.9 1.23 4.78 2.03 8.65 2.4.13 2.13.3 4.18.5 6.15-1.83-1.03-3.25-2-4.25-2.9-1.07-1.37-1.73-2.17-2-2.4z" fill="none"/><path d="m180.25-111.3c-.47-.07-2.05-.7-4.75-1.9-1.2-.5-2.25-.9-3.15-1.2 1.1-10.03 1.65-19.92 1.65-29.65 0-1.6-.03-3.18-.1-4.75h.1c1.8.8 4.53 2.33 8.2 4.6 1.5.8 2.93 1.35 4.3 1.65.53 4.5 1.2 8.63 2 12.4 1.33 6.13 3.5 13 6.5 20.6-3.07.13-7.98-.45-14.75-1.75z" fill="none"/><path d="m373-129.8c0 22.57-3.17 41.97-9.5 58.2-7.4 19-19.02 33.58-34.85 43.75-1.57.47-3.62 1.05-6.15 1.75-6.87 1.9-11.7 3.33-14.5 4.3-5.33 1.77-12.45 3.25-21.35 4.45-9.87 1.37-19.58 2.05-29.15 2.05-10 0-17.78-1.07-23.35-3.2-1.7-.63-3.37-1.47-5-2.5-.87-.53-1.55-.95-2.05-1.25.87-1.53 1.43-3.82 1.7-6.85.13-1.4.2-4.55.2-9.45 0-15.4-1.78-27.9-5.35-37.5-4.53-12.1-13.22-24.48-26.05-37.15-1.1-3.13-2.03-6.13-2.8-9-1.7-6.27-3.03-12.95-4-20.05.17 0 .32-.02.45-.05l.75-1.5c-.5-.23-1-.48-1.5-.75-.33-2.67-.6-5.42-.8-8.25 1.03.03 2.13.03 3.3 0 1.03-.4 1.7-1.07 2-2l-.75-2c-1.7.03-3.32-.03-4.85-.2-.27-4.53-.4-9.22-.4-14.05 0-9.87 1.68-21.9 5.05-36.1.9-3.83 2.07-8.58 3.5-14.25.53.03 1.1.07 1.7.1l.75-1.5c-.27-.77-.78-1.52-1.55-2.25.13-.53.27-1.08.41-1.63 35.51-10.34 73.06-15.89 111.91-15.89 11.41 0 22.71.49 33.88 1.42 4.61 8.02 8.45 15.62 11.5 22.79 11.23 26.51 16.85 56.03 16.85 88.56z" fill="none"/><path d="m424.75-89.55c-3 .83-4.92 1.25-5.75 1.25-3.57 0-6.98-.18-10.25-.55-8.67-.9-16.17-3.07-22.5-6.5-2.73-1.47-5.28-3.22-7.65-5.25-1.5-1.43-2.55-2.4-3.15-2.9.27-2.13.5-4.3.7-6.5 2.13 2.77 4.75 4.87 7.85 6.3 1.23.57 2.72 1.12 4.45 1.65 5.1 1.67 12.28 3.25 21.55 4.75v.5c11.53-.33 18.93-.9 22.2-1.7.27-.07.52-.15.75-.25-.1 2.87-.28 5.73-.55 8.6-.37-.43-1-.65-1.9-.65-.83 0-2.75.42-5.75 1.25z" fill="none"/><path d="m211-82.9c-1.1-2.27-2.27-4.67-3.5-7.2-2.3-4.67-4.35-9.13-6.15-13.4 5.4 7.8 9.55 14.22 12.45 19.25 4.1 7.1 6.9 13.42 8.4 18.95 1.27 4.77 1.95 10.55 2.05 17.35v3.55c-.97-5.83-2.32-11.42-4.05-16.75-1.6-4.87-4.67-12.12-9.2-21.75z" fill="none"/><path d="m427.15-173.5c-2.83 1.03-6.35 2.1-10.55 3.2-12.2 3.27-26.07 5.43-41.6 6.5h-.05c-1.53-12.27-3.95-23.88-7.25-34.85-4.4-14.62-10.49-28.63-18.25-42.06 25.06 2.41 49.45 7.13 72.95 13.95 1.02 11.62 2.16 24.4 3.4 38.36.47 5.2.92 10.17 1.35 14.9z" fill="none"/><path d="m138.9-156.05c-5.33-2.5-8.47-3.75-9.4-3.75-.23 0-.47 0-.7 0-.53-3.93-.8-7.85-.8-11.75 0-.4 0-.82 0-1.25.6.4 1.27.83 2 1.3 3.5 2.07 7.57 4.08 12.2 6.05 11.33 4.77 20.4 6.82 27.2 6.15.17 2.27.32 4.57.45 6.9-3.67.07-6.95.1-9.85.1-7.43 0-14.47-1.25-21.1-3.75z" fill="none"/><path d="m430.05-103.4c.03.37 0 .65-.1.85-.37.83-4.02 1.25-10.95 1.25-12.13 0-22.48-1.77-31.05-5.3-2.73-1.13-5.25-2.43-7.55-3.9-1.9-1.33-3.03-2.1-3.4-2.3-.23.1-.45.2-.65.3.43-5.57.65-11.33.65-17.3 0-10.4-.52-20.42-1.55-30.05 18.7-1.3 32.72-3.07 42.05-5.3 4.1-1 7.47-2.13 10.1-3.4 3.37 38.23 5.17 59.82 5.4 64.75-.17 0-.33 0-.5 0-1.43 0-2.25.13-2.45.4z" fill="none"/><path d="m384.05-92.65c7.03 3.77 17.68 6.55 31.95 8.35v.5c3.53.1 7.12-.35 10.75-1.35 2.33-.67 4.12-1.35 5.35-2.05-.6 5.43-1.52 10.95-2.75 16.55-2.53 11.53-6.07 21.98-10.6 31.35-1.23 2.53-2.5 4.93-3.8 7.2-12.4-3.73-23.02-8.95-31.85-15.65-7.63-6.8-13.93-11.98-18.9-15.55.9-1.9 1.77-3.87 2.6-5.9 3.73-9.3 6.45-19.6 8.15-30.9 2.73 3.17 5.77 5.65 9.1 7.45z" fill="none"/><path d="m125.49-197.1c.12.3.25.61.36.9-1.23 10.63-1.85 18.93-1.85 24.9 0 6.27 1.25 14.48 3.75 24.65 2.53 10.33 5.2 17.87 8 22.6 2.93 5.07 7.37 13.03 13.3 23.9 5.6 10.2 9.58 17.32 11.95 21.35.43-.17.92-.32 1.45-.45.37-.2.55-.83.55-1.9 0-3.63-1.82-8.57-5.45-14.8-3.33-5.23-6.22-9.78-8.65-13.65.87.6 1.85 1.1 2.95 1.5 2.23.87 4.78 1.3 7.65 1.3 1.57 0 3.67-.63 6.3-1.9.6-.27 1.18-.55 1.75-.85-.33 2.07-.68 4.1-1.05 6.1-1.47 7.97-2.47 15.4-3 22.3-.33 4-.5 7.83-.5 11.5 0 8.03.22 13.47.65 16.3.87 5.7 2.9 10.5 6.1 14.4 7.87 9.63 25.7 16.85 53.5 21.65l.15-.25c.1.03.23.07.4.1 1.67 1.9 6.07 3.35 13.2 4.35 8.83 1.23 19.73 1.53 32.7.9 13.53-.67 25.98-2.2 37.35-4.6 2.83-.6 5.48-1.23 7.95-1.9v.4c1.37-.5 2.7-1.02 4-1.55 6.53-2 11.7-4.28 15.5-6.85 2.33 1.83 5.58 4.45 9.75 7.85 3.4 2.6 5.85 3.98 7.35 4.15.53.5 1.12 1.02 1.75 1.55 2.13 1.7 5.43 3.82 9.9 6.35 7.93 4.43 14.28 6.7 19.05 6.8 5.2.13 11.02-2.13 17.45-6.8.7-.97 4.78-6.47 12.25-16.5 5.13-6.9 8.88-12.15 11.25-15.75 7.9-11.87 12.4-29.38 13.5-52.55.33-.2.7-.43 1.1-.7 3.23-2.2 6.78-5.6 10.65-10.2 10.33-12.27 15.5-23.7 15.5-34.3 0-.67 0-1.25 0-1.75l1-1-.5-2.25c-.23-.07-.45-.13-.65-.2 0-.13.02-.28.05-.45.07-.73.1-2.22.1-4.45 0-1.67-.67-19.05-2-52.15 0-2.3.3-6.82.89-13.54 145.26 59.84 247.51 202.8 247.51 369.65 0 220.71-178.92 399.63-399.63 399.63s-399.64-178.91-399.64-399.62c0-153.85 86.94-287.38 214.36-354.17z" fill="none"/><path d="m164.95-113.05c-1.4 1.17-3.35 1.75-5.85 1.75-.83 0-2.6-.42-5.3-1.25s-4.47-1.25-5.3-1.25c-1.03 0-1.67.12-1.9.35v.05c-.4-.63-.77-1.23-1.1-1.8-7.67-12.77-12.82-25.27-15.45-37.5 1.27 1.23 2.98 2.12 5.15 2.65 3.67.83 15.25 1.25 34.75 1.25.03 1.63.05 3.27.05 4.9 0 10.23-.58 19.98-1.75 29.25-1.27.27-2.37.8-3.3 1.6z" fill="none"/><path d="m180.6-214.4c.43 2.07.35 4.15-.25 6.25s-1.72 4.22-3.35 6.35c-1.43-1.07-2.35-4.95-2.75-11.65-.08-1.21-.14-2.92-.18-5.12 1.63-.59 3.26-1.17 4.9-1.74.01.05.02.11.04.16.79 2.6 1.32 4.52 1.59 5.75z"/><path d="m464-146.9c0 2.23-.03 3.72-.1 4.45-.03.17-.05.32-.05.45.2.07.42.13.65.2l.5 2.25c-.37.37-.7.7-1 1v1.75c0 10.6-5.17 22.03-15.5 34.3-3.87 4.6-7.42 8-10.65 10.2-.4.27-.77.5-1.1.7-1.1 23.17-5.6 40.68-13.5 52.55-2.37 3.6-6.12 8.85-11.25 15.75-7.47 10.03-11.55 15.53-12.25 16.5-6.43 4.67-12.25 6.93-17.45 6.8-4.77-.1-11.12-2.37-19.05-6.8-4.47-2.53-7.77-4.65-9.9-6.35-.63-.53-1.22-1.05-1.75-1.55-1.5-.17-3.95-1.55-7.35-4.15-4.17-3.4-7.42-6.02-9.75-7.85-3.8 2.57-8.97 4.85-15.5 6.85-1.3.53-2.63 1.05-4 1.55v-.4c-2.47.67-5.12 1.3-7.95 1.9-11.37 2.4-23.82 3.93-37.35 4.6-12.97.63-23.87.33-32.7-.9-7.13-1-11.53-2.45-13.2-4.35-.17-.03-.3-.07-.4-.1l-.15.25c-27.8-4.8-45.63-12.02-53.5-21.65-3.2-3.9-5.23-8.7-6.1-14.4-.43-2.83-.65-8.27-.65-16.3 0-3.67.17-7.5.5-11.5.53-6.9 1.53-14.33 3-22.3.37-2 .72-4.03 1.05-6.1-.57.3-1.15.58-1.75.85-2.63 1.27-4.73 1.9-6.3 1.9-2.87 0-5.42-.43-7.65-1.3-1.1-.4-2.08-.9-2.95-1.5 2.43 3.87 5.32 8.42 8.65 13.65 3.63 6.23 5.45 11.17 5.45 14.8 0 1.07-.18 1.7-.55 1.9-.53.13-1.02.28-1.45.45-2.37-4.03-6.35-11.15-11.95-21.35-5.93-10.87-10.37-18.83-13.3-23.9-2.8-4.73-5.47-12.27-8-22.6-2.5-10.17-3.75-18.38-3.75-24.65 0-5.97.62-14.27 1.85-24.9-.12-.3-.24-.61-.36-.9 1.63-.86 3.27-1.7 4.92-2.53-1.05 8.36-1.75 15.32-2.1 20.84h.2s3.08 1.8 9.05 5.4c6.2 3.77 9.85 5.88 10.95 6.35 1.03.43 2.78.67 5.25.7 1.43.03 3.83.05 7.2.05 2.97.07 5.58.38 7.85.95-.23-1.87-.5-3.7-.8-5.5-1.33-8.43-2-13.33-2-14.7 0-1.13.05-1.88.15-2.25.27-.9.88-1.57 1.85-2 .37.1.75.25 1.15.45.33.2.53.3.6.3.4 9.73 1.2 18.02 2.4 24.85 1.3.6 2.42 1.32 3.35 2.15 1.33 1.2 3.02 2.22 5.05 3.05 1.47.6 3.05 1.07 4.75 1.4-.2-4.4-.3-9.05-.3-13.95 0-9.4 1.35-21.03 4.05-34.9.6-3.07 1.27-6.25 2-9.55.43-1.93.92-4.05 1.45-6.35-1.19-.37-2.29-.83-3.33-1.37 3.21-1.02 6.44-2.01 9.68-2.95-.14.54-.27 1.1-.41 1.63.77.73 1.28 1.48 1.55 2.25l-.75 1.5c-.6-.03-1.17-.07-1.7-.1-1.43 5.67-2.6 10.42-3.5 14.25-3.37 14.2-5.05 26.23-5.05 36.1 0 4.83.13 9.52.4 14.05 1.53.17 3.15.23 4.85.2l.75 2c-.3.93-.97 1.6-2 2-1.17.03-2.27.03-3.3 0 .2 2.83.47 5.58.8 8.25.5.27 1 .52 1.5.75l-.75 1.5c-.13.03-.28.05-.45.05.97 7.1 2.3 13.78 4 20.05.77 2.87 1.7 5.87 2.8 9 12.83 12.67 21.52 25.05 26.05 37.15 3.57 9.6 5.35 22.1 5.35 37.5 0 4.9-.07 8.05-.2 9.45-.27 3.03-.83 5.32-1.7 6.85.5.3 1.18.72 2.05 1.25 1.63 1.03 3.3 1.87 5 2.5 5.57 2.13 13.35 3.2 23.35 3.2 9.57 0 19.28-.68 29.15-2.05 8.9-1.2 16.02-2.68 21.35-4.45 2.8-.97 7.63-2.4 14.5-4.3 2.53-.7 4.58-1.28 6.15-1.75 15.83-10.19 27.45-24.77 34.85-43.77 6.33-16.23 9.5-35.63 9.5-58.2 0-32.53-5.62-62.05-16.85-88.55-3.05-7.17-6.89-14.77-11.5-22.79 1.6.13 3.21.28 4.8.43 7.76 13.43 13.85 27.44 18.25 42.06 3.3 10.97 5.72 22.58 7.25 34.85h.05c15.53-1.07 29.4-3.23 41.6-6.5 4.2-1.1 7.72-2.17 10.55-3.2-.43-4.73-.88-9.7-1.35-14.9-1.24-13.96-2.38-26.73-3.4-38.36 1.51.44 3.02.89 4.52 1.34 1.14 13.09 2.17 24.88 3.08 35.36.47 5.37.92 10.47 1.35 15.3.6.13 1.02.4 1.25.8.2.3.33.77.4 1.4-.37.5-.82.97-1.35 1.4.8 9.57 1.53 18.12 2.2 25.65 1.57 18.93 2.55 31.6 2.95 38v.05c.13 2.1.2 3.53.2 4.3 0 1.93-.02 3.83-.05 5.7 2.23-2.63 5.42-6.18 9.55-10.65 9-11.13 13.5-20.73 13.5-28.8v-.05c-11.63-.9-18.7-1.87-21.2-2.9-1.2-.5-2.12-1.25-2.75-2.25-.7-1.37-1.38-2.52-2.05-3.45.5-.5 1.17-.92 2-1.25.77.17 2.45 1.05 5.05 2.65 3.97 1.53 10.02 2.55 18.15 3.05-.13-.3-.2-.57-.2-.8l-1-57.4c0-2.13.37-7.08 1.11-14.82 1.26.5 2.52 1.01 3.78 1.53-.59 6.72-.89 11.24-.89 13.54 1.33 33.11 2 50.49 2 52.16zm-294.6-12.4c-6.8.67-15.87-1.38-27.2-6.15-4.63-1.97-8.7-3.98-12.2-6.05-.73-.47-1.4-.9-2-1.3v1.25c0 3.9.27 7.82.8 11.75h.7c.93 0 4.07 1.25 9.4 3.75 6.63 2.5 13.67 3.75 21.1 3.75 2.9 0 6.18-.03 9.85-.1-.13-2.33-.28-4.63-.45-6.9zm.55 10.5c-19.5 0-31.08-.42-34.75-1.25-2.17-.53-3.88-1.42-5.15-2.65 2.63 12.23 7.78 24.73 15.45 37.5.33.57.7 1.17 1.1 1.8v-.05c.23-.23.87-.35 1.9-.35.83 0 2.6.42 5.3 1.25s4.47 1.25 5.3 1.25c2.5 0 4.45-.58 5.85-1.75.93-.8 2.03-1.33 3.3-1.6 1.17-9.27 1.75-19.02 1.75-29.25 0-1.63-.02-3.27-.05-4.9zm15.6-4.25c-3.87-.37-6.75-1.17-8.65-2.4-1.33-1.5-2.62-2.62-3.85-3.35.27 2.07.48 4.17.65 6.3.7 0 1.42-.02 2.15-.05 2.3-.03 3.62.08 3.95.35.27.23.93 1.03 2 2.4 1 .9 2.42 1.87 4.25 2.9-.2-1.97-.37-4.02-.5-6.15zm2.95 22.9c-.8-3.77-1.47-7.9-2-12.4-1.37-.3-2.8-.85-4.3-1.65-3.67-2.27-6.4-3.8-8.2-4.6-.03 0-.07 0-.1 0 .07 1.57.1 3.15.1 4.75 0 9.73-.55 19.62-1.65 29.65.9.3 1.95.7 3.15 1.2 2.7 1.2 4.28 1.83 4.75 1.9 6.77 1.3 11.68 1.88 14.75 1.75-3-7.6-5.17-14.47-6.5-20.6zm9.05 26.75c-.4-.9-.78-1.8-1.15-2.7-.17.13-.3.23-.4.3-6.9 1.4-12.73 1.05-17.5-1.05-2.2-1.17-3.78-1.98-4.75-2.45-.67-.33-1.3-.62-1.9-.85-.4 3.17-.85 6.35-1.35 9.55-2.33 14.83-3.5 25.1-3.5 30.8 0 7.37.22 12.37.65 15 .83 5 2.78 9.3 5.85 12.9 6.93 8.07 22.78 15.5 47.55 22.3.5-.47 1.15-.87 1.95-1.2.2.07.4.15.6.25.07-.07.15-.13.25-.2-3.97-19.93-8.55-37.28-13.75-52.05-2.2-6.27-6.38-16.47-12.55-30.6zm26.7 55.45c-.1-6.8-.78-12.58-2.05-17.35-1.5-5.53-4.3-11.85-8.4-18.95-2.9-5.03-7.05-11.45-12.45-19.25 1.8 4.27 3.85 8.73 6.15 13.4 1.23 2.53 2.4 4.93 3.5 7.2 4.53 9.63 7.6 16.88 9.2 21.75 1.73 5.33 3.08 10.92 4.05 16.75 0-1.37 0-2.55 0-3.55zm208.7-50.8c-.23.1-.48.18-.75.25-3.27.8-10.67 1.37-22.2 1.7v-.5c-9.27-1.5-16.45-3.08-21.55-4.75-1.73-.53-3.22-1.08-4.45-1.65-3.1-1.43-5.72-3.53-7.85-6.3-.2 2.2-.43 4.37-.7 6.5.6.5 1.65 1.47 3.15 2.9 2.37 2.03 4.92 3.78 7.65 5.25 6.33 3.43 13.83 5.6 22.5 6.5 3.27.37 6.68.55 10.25.55.83 0 2.75-.42 5.75-1.25s4.92-1.25 5.75-1.25c.9 0 1.53.22 1.9.65.27-2.87.45-5.73.55-8.6zm-70.1 38.2c-6.77 13.3-15.88 23.9-27.35 31.8.17-.03.33-.05.5-.05 3.17 1.67 6.37 3.82 9.6 6.45.4.33 1.23 1.07 2.5 2.2-.03-.13-.07-.27-.1-.4.5-.5 1.17-.92 2-1.25 1.43.9 4.9 3.83 10.4 8.8 6.13 4.47 12.5 6.7 19.1 6.7 7.97 0 15.45-3.12 22.45-9.35 4.37-3.9 8.38-8.85 12.05-14.85-12.63-1.83-23.7-6.2-33.2-13.1-4.07-2.97-10.05-8.62-17.95-16.95zm12.1-39.55c-1.7 11.3-4.42 21.6-8.15 30.9-.83 2.03-1.7 4-2.6 5.9 4.97 3.57 11.27 8.75 18.9 15.55 8.83 6.7 19.45 11.92 31.85 15.65 1.3-2.27 2.57-4.67 3.8-7.2 4.53-9.37 8.07-19.82 10.6-31.35 1.23-5.6 2.15-11.12 2.75-16.55-1.23.7-3.02 1.38-5.35 2.05-3.63 1-7.22 1.45-10.75 1.35v-.5c-14.27-1.8-24.92-4.58-31.95-8.35-3.33-1.8-6.37-4.28-9.1-7.45zm52.65-68.45c-2.63 1.27-6 2.4-10.1 3.4-9.33 2.23-23.35 4-42.05 5.3 1.03 9.63 1.55 19.65 1.55 30.05 0 5.97-.22 11.73-.65 17.3.2-.1.42-.2.65-.3.37.2 1.5.97 3.4 2.3 2.3 1.47 4.82 2.77 7.55 3.9 8.57 3.53 18.92 5.3 31.05 5.3 6.93 0 10.58-.42 10.95-1.25.1-.2.13-.48.1-.85.2-.27 1.02-.4 2.45-.4h.5c-.23-4.93-2.03-26.52-5.4-64.75z"/><path clip-rule="evenodd" d="m163.5-81.15c.53-6.9 1.53-14.33 3-22.3.37-2 .72-4.03 1.05-6.1-.57.3-1.15.58-1.75.85-2.63 1.27-4.73 1.9-6.3 1.9-2.87 0-5.42-.43-7.65-1.3-1.1-.4-2.08-.9-2.95-1.5 2.43 3.87 5.32 8.42 8.65 13.65 3.63 6.23 5.45 11.17 5.45 14.8zm246.5-15.65v-.5c-9.27-1.5-16.45-3.08-21.55-4.75-1.73-.53-3.22-1.08-4.45-1.65-3.1-1.43-5.72-3.53-7.85-6.3-.2 2.2-.43 4.37-.7 6.5.6.5 1.65 1.47 3.15 2.9 2.37 2.03 4.92 3.78 7.65 5.25 6.33 3.43 13.83 5.6 22.5 6.5 3.27.37 6.68.55 10.25.55.83 0 2.75-.42 5.75-1.25s4.92-1.25 5.75-1.25c.9 0 1.53.22 1.9.65.27-2.87.45-5.73.55-8.6-.23.1-.48.18-.75.25-3.27.8-10.67 1.37-22.2 1.7zm-186.4 76.25c.07-.07.15-.13.25-.2-3.97-19.93-8.55-37.28-13.75-52.05-2.2-6.27-6.38-16.47-12.55-30.6-.4-.9-.78-1.8-1.15-2.7-.17.13-.3.23-.4.3-6.9 1.4-12.73 1.05-17.5-1.05-2.2-1.17-3.78-1.98-4.75-2.45-.67-.33-1.3-.62-1.9-.85-.4 3.17-.85 6.35-1.35 9.55-2.33 14.83-3.5 25.1-3.5 30.8 0 7.37.22 12.37.65 15 .83 5 2.78 9.3 5.85 12.9 6.93 8.07 22.78 15.5 47.55 22.3.5-.47 1.15-.87 1.95-1.2.2.07.4.15.6.25z" fill="#d82e2e" fill-rule="evenodd"/><path d="m310.76 556.7c-220.71 0-399.63-178.92-399.63-399.63 0-155.81 89.17-290.79 219.27-356.7-1.05 8.36-1.75 15.32-2.1 20.84h.2s3.08 1.8 9.05 5.4c6.2 3.77 9.85 5.88 10.95 6.35 1.03.43 2.78.67 5.25.7 1.43.03 3.83.05 7.2.05 2.97.07 5.58.38 7.85.95-.23-1.87-.5-3.7-.8-5.5-1.33-8.43-2-13.33-2-14.7 0-1.13.05-1.88.15-2.25.27-.9.88-1.57 1.85-2 .37.1.75.25 1.15.45.33.2.53.3.6.3.4 9.73 1.2 18.02 2.4 24.85 1.3.6 2.42 1.32 3.35 2.15 1.33 1.2 3.02 2.22 5.05 3.05 1.47.6 3.05 1.07 4.75 1.4-.2-4.4-.3-9.05-.3-13.95 0-9.4 1.35-21.03 4.05-34.9.6-3.07 1.27-6.25 2-9.55.43-1.93.92-4.05 1.45-6.35-1.19-.37-2.29-.83-3.33-1.37 38.34-12.23 79.19-18.84 121.59-18.84 220.71 0 399.63 178.92 399.63 399.63s-178.92 399.62-399.63 399.62zm70.04-600.3c-4.07-2.97-10.05-8.62-17.95-16.95-6.77 13.3-15.88 23.9-27.35 31.8.17-.03.33-.05.5-.05 3.17 1.67 6.37 3.82 9.6 6.45.4.33 1.23 1.07 2.5 2.2-.03-.13-.07-.27-.1-.4.5-.5 1.17-.92 2-1.25 1.43.9 4.9 3.83 10.4 8.8 6.13 4.47 12.5 6.7 19.1 6.7 7.97 0 15.45-3.12 22.45-9.35 4.37-3.9 8.38-8.85 12.05-14.85-12.63-1.83-23.7-6.2-33.2-13.1zm79.2-93.35c-11.63-.9-18.7-1.87-21.2-2.9-1.2-.5-2.12-1.25-2.75-2.25-.7-1.37-1.38-2.52-2.05-3.45l-.15.05c1.57 18.93 2.55 31.6 2.95 38v.05c.13 2.1.2 3.53.2 4.3 0 1.93-.02 3.83-.05 5.7 2.23-2.63 5.42-6.18 9.55-10.65 9-11.13 13.5-20.73 13.5-28.8z" fill="none"/><path d="m180.6-214.4c.43 2.07.35 4.15-.25 6.25s-1.72 4.22-3.35 6.35c-1.43-1.07-2.35-4.95-2.75-11.65-.08-1.21-.14-2.92-.18-5.12 1.63-.59 3.26-1.17 4.9-1.74.01.05.02.11.04.16.79 2.6 1.32 4.52 1.59 5.75z" fill="none"/><path d="m191.05-216c-.73 3.3-1.4 6.48-2 9.55-2.7 13.87-4.05 25.5-4.05 34.9 0 4.9.1 9.55.3 13.95-1.7-.33-3.28-.8-4.75-1.4-2.03-.83-3.72-1.85-5.05-3.05-.93-.83-2.05-1.55-3.35-2.15-1.2-6.83-2-15.12-2.4-24.85-.07 0-.27-.1-.6-.3-.4-.2-.78-.35-1.15-.45-.97.43-1.58 1.1-1.85 2-.1.37-.15 1.12-.15 2.25 0 1.37.67 6.27 2 14.7.3 1.8.57 3.63.8 5.5-2.27-.57-4.88-.88-7.85-.95-3.37 0-5.77-.02-7.2-.05-2.47-.03-4.22-.27-5.25-.7-1.1-.47-4.75-2.58-10.95-6.35-5.97-3.6-8.98-5.4-9.05-5.4s-.13 0-.2 0c.35-5.52 1.05-12.48 2.1-20.84 14.1-7.14 28.67-13.47 43.66-18.93.04 2.2.1 3.91.18 5.12.4 6.7 1.32 10.58 2.75 11.65 1.63-2.13 2.75-4.25 3.35-6.35s.68-4.18.25-6.25c-.27-1.23-.8-3.15-1.6-5.75-.01-.06-.02-.11-.04-.16 3.38-1.18 6.79-2.32 10.21-3.41 1.04.54 2.14 1.01 3.33 1.37-.52 2.3-1.01 4.42-1.44 6.35z" fill="#ff903e"/><path d="m436.95-97.45c.03-1.87.05-3.77.05-5.7 0-.77-.07-2.2-.2-4.3v-.05c-.4-6.4-1.38-19.07-2.95-38l.15-.05c.67.93 1.35 2.08 2.05 3.45.63 1 1.55 1.75 2.75 2.25 2.5 1.03 9.57 2 21.2 2.9v.05c0 8.07-4.5 17.67-13.5 28.8-4.13 4.47-7.32 8.02-9.55 10.65z" fill="#ff903e"/><path d="m401.95-15.65c-7 6.23-14.48 9.35-22.45 9.35-6.6 0-12.97-2.23-19.1-6.7-5.5-4.97-8.97-7.9-10.4-8.8-.83.33-1.5.75-2 1.25.03.13.07.27.1.4-1.27-1.13-2.1-1.87-2.5-2.2-3.23-2.63-6.43-4.78-9.6-6.45-.17 0-.33.02-.5.05 11.47-7.9 20.58-18.5 27.35-31.8 7.9 8.33 13.88 13.98 17.95 16.95 9.5 6.9 20.57 11.27 33.2 13.1-3.67 6-7.68 10.95-12.05 14.85z" fill="#ff903e"/><path clip-rule="evenodd" d="m380.4-110.5c2.3 1.47 4.82 2.77 7.55 3.9 8.57 3.53 18.92 5.3 31.05 5.3 6.93 0 10.58-.42 10.95-1.25.1-.2.13-.48.1-.85.2-.27 1.02-.4 2.45-.4h.5c-.23-4.93-2.03-26.52-5.4-64.75-2.63 1.27-6 2.4-10.1 3.4-9.33 2.23-23.35 4-42.05 5.3 1.03 9.63 1.55 19.65 1.55 30.05 0 5.97-.22 11.73-.65 17.3.2-.1.42-.2.65-.3.37.2 1.5.97 3.4 2.3z" fill="#ae9380" fill-rule="evenodd"/><path d="m310.76 556.7c-220.71 0-399.63-178.92-399.63-399.63s178.93-399.63 399.63-399.63c40.4 0 79.4 6 116.16 17.15 1.14 13.09 2.17 24.88 3.08 35.36.47 5.37.92 10.47 1.35 15.3.6.13 1.02.4 1.25.8.2.3.33.77.4 1.4-.37.5-.82.97-1.35 1.4.8 9.57 1.53 18.12 2.2 25.65l.15-.05c.5-.5 1.17-.92 2-1.25.77.17 2.45 1.05 5.05 2.65 3.97 1.53 10.02 2.55 18.15 3.05-.13-.3-.2-.57-.2-.8l-1-57.4c0-2.13.37-7.08 1.11-14.82 147.26 58.9 251.29 202.89 251.29 371.18-.01 220.72-178.93 399.64-399.64 399.64zm-140.81-705.5c-19.5 0-31.08-.42-34.75-1.25-2.17-.53-3.88-1.42-5.15-2.65 2.63 12.23 7.78 24.73 15.45 37.5.33.57.7 1.17 1.1 1.8v-.05c.23-.23.87-.35 1.9-.35.83 0 2.6.42 5.3 1.25s4.47 1.25 5.3 1.25c2.5 0 4.45-.58 5.85-1.75.93-.8 2.03-1.33 3.3-1.6 1.17-9.27 1.75-19.02 1.75-29.25 0-1.63-.02-3.27-.05-4.9zm18.55 18.65c-.8-3.77-1.47-7.9-2-12.4-1.37-.3-2.8-.85-4.3-1.65-3.67-2.27-6.4-3.8-8.2-4.6-.03 0-.07 0-.1 0 .07 1.57.1 3.15.1 4.75 0 9.73-.55 19.62-1.65 29.65.9.3 1.95.7 3.15 1.2 2.7 1.2 4.28 1.83 4.75 1.9 6.77 1.3 11.68 1.88 14.75 1.75-3-7.6-5.17-14.47-6.5-20.6zm35.75 82.2c-.1-6.8-.78-12.58-2.05-17.35-1.5-5.53-4.3-11.85-8.4-18.95-2.9-5.03-7.05-11.45-12.45-19.25 1.8 4.27 3.85 8.73 6.15 13.4 1.23 2.53 2.4 4.93 3.5 7.2 4.53 9.63 7.6 16.88 9.2 21.75 1.73 5.33 3.08 10.92 4.05 16.75 0-1.37 0-2.55 0-3.55z" fill="none"/><path d="m211-82.9c-1.1-2.27-2.27-4.67-3.5-7.2-2.3-4.67-4.35-9.13-6.15-13.4 5.4 7.8 9.55 14.22 12.45 19.25 4.1 7.1 6.9 13.42 8.4 18.95 1.27 4.77 1.95 10.55 2.05 17.35v3.55c-.97-5.83-2.32-11.42-4.05-16.75-1.6-4.87-4.67-12.12-9.2-21.75z" fill="#234601"/><path d="m164.95-113.05c-1.4 1.17-3.35 1.75-5.85 1.75-.83 0-2.6-.42-5.3-1.25s-4.47-1.25-5.3-1.25c-1.03 0-1.67.12-1.9.35v.05c-.4-.63-.77-1.23-1.1-1.8-7.67-12.77-12.82-25.27-15.45-37.5 1.27 1.23 2.98 2.12 5.15 2.65 3.67.83 15.25 1.25 34.75 1.25.03 1.63.05 3.27.05 4.9 0 10.23-.58 19.98-1.75 29.25-1.27.27-2.37.8-3.3 1.6z" fill="#234601"/><path d="m459-141.9c0 .23.07.5.2.8-8.13-.5-14.18-1.52-18.15-3.05-2.6-1.6-4.28-2.48-5.05-2.65-.83.33-1.5.75-2 1.25l-.15.05c-.67-7.53-1.4-16.08-2.2-25.65.53-.43.98-.9 1.35-1.4-.07-.63-.2-1.1-.4-1.4-.23-.4-.65-.67-1.25-.8-.43-4.83-.88-9.93-1.35-15.3-.91-10.48-1.94-22.27-3.08-35.36 10.94 3.32 21.67 7.09 32.19 11.3-.74 7.74-1.11 12.69-1.11 14.82z" fill="#234601"/><path d="m180.25-111.3c-.47-.07-2.05-.7-4.75-1.9-1.2-.5-2.25-.9-3.15-1.2 1.1-10.03 1.65-19.92 1.65-29.65 0-1.6-.03-3.18-.1-4.75h.1c1.8.8 4.53 2.33 8.2 4.6 1.5.8 2.93 1.35 4.3 1.65.53 4.5 1.2 8.63 2 12.4 1.33 6.13 3.5 13 6.5 20.6-3.07.13-7.98-.45-14.75-1.75z" fill="#234601"/><path d="m403.08-202.98c-3.28-10.25-6.33-20.56-9.17-30.92 3.58.76 7.15 1.56 10.69 2.42.96 3.67 2.19 8.19 3.7 13.58-1.76 4.97-3.5 9.94-5.22 14.92z" fill="none"/><path d="m407.02-230.89c1.8.45 3.6.9 5.39 1.37-.93 2.61-1.86 5.22-2.79 7.84-.85-3.02-1.72-6.1-2.6-9.21z" fill="none"/><path d="m410.3-198.1c-.83 3.2-1.7 6.25-2.6 9.15-1.31-3.85-2.6-7.71-3.85-11.57.7-1.9 1.43-3.91 2.2-6.02 1.08-2.98 2.09-5.84 3.03-8.58.26.97.54 1.96.82 2.98.74 2.64 1.44 5.14 2.1 7.5-.63 2.43-1.2 4.61-1.7 6.54z" fill="none"/><path d="m404.05-178.4c-1.63-3.55-3.17-6.85-4.62-9.9 1.1-3.03 2.38-6.58 3.85-10.65 1.37 4.14 2.68 7.99 3.93 11.58-1.02 3.17-2.07 6.16-3.16 8.97z" fill="none"/><path d="m310.76 556.7c-220.71 0-399.63-178.92-399.63-399.63s178.93-399.63 399.63-399.63c28.02 0 55.35 2.89 81.74 8.37 1.13 5.11 4.37 15.81 9.74 32.14.08.24.16.48.25.72-.12.33-.24.65-.35.98-1.35 3.89-2.54 7.32-3.55 10.27-3.4-7.13-6.25-12.82-8.55-17.07l-.5.25c2.59 5.58 5.4 11.77 8.45 18.57-2.63 7.75-3.95 11.89-3.95 12.43 0 .53.02.78.05.75s.05-.1.05-.2h.65c.28-.87 1.62-4.6 4-11.2 1.44 3.25 2.93 6.62 4.48 10.12-1.19 2.94-2.44 5.66-3.73 8.17.13.17.2.32.2.45 1.52-2.11 2.91-4.5 4.17-7.15 1.32 3.01 2.68 6.12 4.08 9.33-1.63 5.37-2.45 8.55-2.45 9.52 0 .47.02.7.05.7.07-.03.12 0 .15.1h.55c1.02-2.37 2.02-4.82 3-7.35 2.38 5.51 4.86 11.3 7.45 17.35h.6c.1-.13.17-.18.2-.15.03-.03.05-.3.05-.8 0-1.32-2.48-7.54-7.43-18.67.88-2.37 1.73-4.81 2.58-7.3 2.36 6.06 4.39 10.7 6.1 13.93-1.95-5.04-3.85-10.09-5.7-15.15 1.37-4.12 2.68-8.42 3.93-12.88 1.44 5.35 2.33 8.85 2.67 10.48h.6c.1-.13.17-.22.2-.25.03-.07.05-.37.05-.9 0-2.08-.82-6.5-2.45-13.27 1.03-3.87 2.01-7.86 2.95-11.98l-.25-.35c-1.08 2.54-2.25 5.54-3.52 9-.99-3.91-2.2-8.46-3.62-13.65.31-1.35.62-2.79.95-4.3 1.73-7.97 2.88-13.05 3.45-15.25l-.25-.35c-1.79 6.9-3.35 12.91-4.68 18.02-.35-1.24-.71-2.52-1.07-3.83-.57-2.02-1.14-4.05-1.73-6.1 1.19-3.63 2.22-7.02 3.11-10.18 170.93 45.34 296.91 201.1 296.91 386.3 0 220.72-178.92 399.64-399.63 399.64zm94.74-711.7-.7-.05c-.17.2-.25.55-.25 1.05.47.2.8.12 1-.25z" fill="none"/><path d="m407.85-185.52c1.21 3.42 2.35 6.57 3.42 9.45-.07.24-.15.48-.23.73-.87 2.69-1.64 5.11-2.3 7.25-.66-1.48-1.36-3.03-2.1-4.65-.64-1.4-1.26-2.75-1.88-4.08.69-1.57 1.33-3.23 1.93-4.97.27-.74.65-1.98 1.16-3.73z" fill="none"/><path d="m411-196.75c.5-1.64 1.02-3.58 1.58-5.83 1.35 4.78 2.5 8.95 3.47 12.5-1.34 3.75-2.79 7.97-4.32 12.65-1.16-3.23-2.29-6.47-3.4-9.73.7-2.44 1.59-5.64 2.67-9.59z" fill="none"/><path d="m404.55-154c0-.5.08-.85.25-1.05l.7.05.05.75c-.2.37-.53.45-1 .25z"/><path d="m412.1-212.95c.37 1.31.73 2.58 1.07 3.83 1.33-5.11 2.89-11.12 4.68-18.02l.25.35c-.57 2.2-1.72 7.28-3.45 15.25-.33 1.51-.64 2.95-.95 4.3 1.43 5.19 2.63 9.74 3.62 13.65 1.27-3.46 2.45-6.46 3.52-9l.25.35c-.94 4.11-1.92 8.1-2.95 11.98 1.63 6.77 2.45 11.2 2.45 13.27 0 .53-.02.83-.05.9-.03.03-.1.12-.2.25h-.6c-.34-1.63-1.23-5.12-2.67-10.48-1.25 4.46-2.55 8.75-3.93 12.88 1.85 5.06 3.75 10.11 5.7 15.15-1.71-3.22-3.74-7.86-6.1-13.93-.84 2.5-1.7 4.93-2.58 7.3 4.95 11.13 7.43 17.36 7.43 18.67 0 .5-.02.77-.05.8-.03-.03-.1.02-.2.15h-.6c-2.59-6.05-5.07-11.84-7.45-17.35-.98 2.53-1.98 4.98-3 7.35h-.55c-.03-.1-.08-.13-.15-.1-.03 0-.05-.23-.05-.7 0-.98.82-4.15 2.45-9.52-1.4-3.2-2.75-6.31-4.08-9.33-1.26 2.65-2.65 5.04-4.17 7.15 0-.13-.07-.28-.2-.45 1.29-2.51 2.53-5.24 3.73-8.17-1.54-3.5-3.03-6.88-4.48-10.12-2.38 6.6-3.72 10.33-4 11.2h-.65c0 .1-.02.17-.05.2s-.05-.22-.05-.75c0-.54 1.32-4.68 3.95-12.43-3.05-6.8-5.86-13-8.45-18.57l.5-.25c2.3 4.25 5.15 9.95 8.55 17.07 1.01-2.96 2.2-6.38 3.55-10.27.11-.32.23-.65.35-.98-.09-.24-.17-.48-.25-.72-5.37-16.33-8.61-27.03-9.74-32.14.47.1.93.2 1.4.3 2.84 10.36 5.89 20.67 9.17 30.92 1.73-4.98 3.47-9.96 5.22-14.92-1.51-5.39-2.74-9.91-3.7-13.58.81.19 1.62.39 2.42.59.88 3.11 1.75 6.19 2.6 9.21.92-2.62 1.86-5.23 2.79-7.84.36.09.72.19 1.08.28-.89 3.16-1.92 6.55-3.11 10.18.59 2.04 1.16 4.07 1.73 6.09zm3.95 22.87c-.97-3.55-2.13-7.72-3.47-12.5-.56 2.24-1.08 4.19-1.58 5.83-1.08 3.95-1.97 7.15-2.67 9.6 1.11 3.25 2.24 6.49 3.4 9.73 1.53-4.69 2.98-8.9 4.32-12.66zm-9.4 17.33c.74 1.62 1.44 3.17 2.1 4.65.66-2.14 1.43-4.56 2.3-7.25.08-.24.15-.48.23-.73-1.08-2.88-2.22-6.03-3.42-9.45-.51 1.76-.9 3-1.15 3.73-.6 1.74-1.24 3.4-1.93 4.97.61 1.33 1.23 2.69 1.87 4.08zm-7.23-15.55c1.45 3.05 2.99 6.35 4.62 9.9 1.09-2.81 2.14-5.8 3.15-8.98-1.24-3.58-2.55-7.44-3.93-11.58-1.45 4.08-2.74 7.63-3.84 10.66zm9.66-26.82c-.93 2.74-1.94 5.6-3.03 8.58-.77 2.12-1.5 4.12-2.2 6.02 1.25 3.87 2.54 7.73 3.85 11.57.9-2.9 1.77-5.95 2.6-9.15.5-1.93 1.07-4.11 1.7-6.55-.66-2.36-1.36-4.86-2.1-7.5-.29-1.01-.56-2-.82-2.97z"/><path d="m310.76 556.7c-220.71 0-399.63-178.92-399.63-399.63s178.93-399.63 399.63-399.63c39.37 0 77.41 5.7 113.34 16.3.66 4.51 1.44 9.43 2.35 14.76 2.97 17.23 4 31.63 3.1 43.2-.4 5.5-.03 12.5 1.1 21 1.47 9.57 2.43 16.72 2.9 21.45.4 2.1.88 5.53 1.45 10.3.6 4.77 1.12 8.33 1.55 10.7-.17 1.47-.12 3.22.15 5.25.3 2.17.73 3.78 1.3 4.85 1.9-.27 2.98-1.75 3.25-4.45.13-1.4.08-3.08-.15-5.05 0-5.97-.4-10.77-1.2-14.4-.57-2.67-2.02-8.62-4.35-17.85v-36.8c-1.51-9.94-3.22-26.95-5.12-51.04 162.25 50.85 279.97 202.38 279.97 381.4-.01 220.72-178.93 399.64-399.64 399.64zm-140.16-730.7-.85-.25c-.63.6-1.07 1.13-1.3 1.6-.17.43-.3.73-.4.9-.13-1.6-.35-4.45-.65-8.55-.25-1.61-.64-3.03-1.15-4.25v-.8c.1.03.35.12.75.25.47.13 1.07.17 1.8.1 0-.03.08-.13.25-.3.13-.17.2-.5.2-1 0-.8-.93-2.9-2.8-6.3-1.9-3.4-3.3-5.45-4.2-6.15-1.07.87-1.6 1.7-1.6 2.5s.35 2.58 1.05 5.35c.38 1.51.66 2.75.82 3.73-.18.19-.27.42-.27.67 0 .27.42 2.67 1.25 7.2s1.25 8.72 1.25 12.55c0 4.87-.32 11.18-.95 18.95-.93 11.03-1.45 17.42-1.55 19.15 0 .1-.77 5.95-2.3 17.55-1.47 11.23-2.2 17.98-2.2 20.25 0 3.2.05 5.12.15 5.75.13 1.03.68 3.15 1.65 6.35 3.53-.3 5.57-1.62 6.1-3.95.33-1.33.47-3.52.4-6.55.73-3.13 1.5-7.3 2.3-12.5.43-2.9 1.07-7.1 1.9-12.6v-22.9c.5-1.33.82-4.57.95-9.7.03-1.83.05-5.62.05-11.35 0-7-.22-12.23-.65-15.7z" fill="none"/><path d="m164.25-113.25h.25l-.75 1.9c0-.27.17-.9.5-1.9z" fill="none"/><path d="m170.25-137.25v22.9c-.83 5.5-1.47 9.7-1.9 12.6-.8 5.2-1.57 9.37-2.3 12.5.07 3.03-.07 5.22-.4 6.55-.53 2.33-2.57 3.65-6.1 3.95-.97-3.2-1.52-5.32-1.65-6.35-.1-.63-.15-2.55-.15-5.75 0-2.27.73-9.02 2.2-20.25 1.53-11.6 2.3-17.45 2.3-17.55.1-1.73.62-8.12 1.55-19.15.63-7.77.95-14.08.95-18.95 0-3.83-.42-8.02-1.25-12.55s-1.25-6.93-1.25-7.2c0-.26.09-.48.27-.67-.17-.97-.44-2.21-.82-3.73-.7-2.77-1.05-4.55-1.05-5.35s.53-1.63 1.6-2.5c.9.7 2.3 2.75 4.2 6.15 1.87 3.4 2.8 5.5 2.8 6.3 0 .5-.07.83-.2 1-.17.17-.25.27-.25.3-.73.07-1.33.03-1.8-.1-.4-.13-.65-.22-.75-.25v.8c.51 1.22.9 2.64 1.15 4.25.3 4.1.52 6.95.65 8.55.1-.17.23-.47.4-.9.23-.47.67-1 1.3-1.6l.85.25c.43 3.47.65 8.7.65 15.7 0 5.73-.02 9.52-.05 11.35-.13 5.13-.45 8.37-.95 9.7zm-6 24c-.33 1-.5 1.63-.5 1.9l.75-1.9z"/><path d="m435.55-136.5c2.33 9.23 3.78 15.18 4.35 17.85.8 3.63 1.2 8.43 1.2 14.4.23 1.97.28 3.65.15 5.05-.27 2.7-1.35 4.18-3.25 4.45-.57-1.07-1-2.68-1.3-4.85-.27-2.03-.32-3.78-.15-5.25-.43-2.37-.95-5.93-1.55-10.7-.57-4.77-1.05-8.2-1.45-10.3-.47-4.73-1.43-11.88-2.9-21.45-1.13-8.5-1.5-15.5-1.1-21 .9-11.57-.13-25.97-3.1-43.2-.91-5.33-1.69-10.25-2.35-14.76 2.11.62 4.22 1.27 6.32 1.92 1.9 24.08 3.61 41.1 5.12 51.04v36.8z"/></symbol><symbol id="d" viewBox="-41.66 -161.06 799.26 799.26"><path d="m124.85-71.5c-2.92-2.28-5.9-4.94-8.93-7.95 6.24-4.76 12.63-9.34 19.15-13.73-3.17 10.2-4.78 17.45-4.83 21.73-1.79-.03-3.59-.05-5.39-.05z" fill="none"/><path d="m386.75-33.5c-1.67.67-3 1.5-4 2.5 0 .43.1.9.3 1.4-4.77 1.73-9.43 4.62-14 8.65-.9.8-2 1.85-3.3 3.15l-45.7.25c-18.3-.73-37.42-4.72-57.35-11.95-8.63-3.13-15.57-6.32-20.8-9.55-1.17-.73-2.2-1.43-3.1-2.1-.93-.8-1.85-1.58-2.75-2.35-1.57-1.57-2.35-3-2.35-4.3 0-3.07 1.2-6.7 3.6-10.9 2.87-4.97 6.83-9.52 11.9-13.65 13.67-11.03 32.08-16.55 55.25-16.55 24.3 0 45.6 7.35 63.9 22.05 6.83 5.5 12.38 11.4 16.65 17.7 3.8 5.57 5.7 10.02 5.7 13.35 0 .67-.1 1.37-.3 2.1-1.2.07-2.42.13-3.65.2z" fill="none"/><path d="m544.75-67.1c-4.9 9.37-7.98 15.6-9.25 18.7-6-7.87-11.47-16.22-16.4-25.05.6-.63 1.17-1.3 1.7-2 1.3-1.77 1.95-3.28 1.95-4.55 0-.37-1.13-3.08-3.4-8.15-2.33-5.2-3.53-7.98-3.6-8.35v-1c1.33 1.1 2.62 2.68 3.85 4.75.73 1.2 1.78 3.07 3.15 5.6 2.77 4.8 6.1 8.02 10 9.65.83-.33 1.82-.5 2.95-.5.17-.07.32-.2.45-.4.4-.53.6-1.57.6-3.1 0-.27-3.68-8.4-11.05-24.4-3.41-7.58-6.73-15.2-10-22.82 17.08 7.35 33.55 15.84 49.3 25.4-5.97 9.94-11.81 20.25-17.5 30.97-.93 1.73-1.85 3.48-2.75 5.25z" fill="none"/><path d="m360.75-12.75c-.93.97-1.77 1.82-2.5 2.55-3.97-1.47-6.45-2.5-7.45-3.1h10.5c-.2.17-.38.35-.55.55z" fill="none"/><path d="m511.05-89.1c-5.23-11.4-9-22.37-11.3-32.9-.67-.67-1.67-1.17-3-1.5-2 .17-3.17.33-3.5.5-.07.03-.13.13-.2.3-.2.5-.3 1.57-.3 3.2 0 8.23 5.03 21.75 15.1 40.55 5.43 10.13 12.9 22.95 22.4 38.45l.5.5c-4.27.8-7.75 1.5-10.45 2.1-.13-.4-.25-.65-.35-.75-.53-.57-1.93-.85-4.2-.85-2.07 0-3.27.17-3.6.5l.1.5-77.5 1c-2.67.67-6.17 1.2-10.5 1.6-6.13.6-16.02 1.27-29.65 2 .07-.67.1-1.33.1-2 0-5.23-2.28-10.92-6.85-17.05-4.3-5.83-10.23-11.55-17.8-17.15-16.27-12-33.77-19.77-52.5-23.3h-26.1c-16.27.23-31.13 6.3-44.6 18.2-5.27 4.67-9.53 9.6-12.8 14.8-2.97 4.7-4.5 8.58-4.6 11.65-4.47-3.33-8.12-5.58-10.95-6.75-.57.23-1.1.48-1.6.75-.3-.13-.62-.27-.95-.4-5.97-2.53-13.52-4.97-22.65-7.3-19.03-4.93-37.87-7.85-56.5-8.75 5.68-8.78 10.68-19.67 15.01-32.65 11.21-6.76 22.78-12.99 34.67-18.65 1.38 2.64 2.64 4.98 3.77 7 1.43-.57 2.42-1.23 2.95-2 .7-1.03 1.05-2.7 1.05-5 0-.76-.23-1.86-.68-3.29 50.14-22.66 105.79-35.27 164.39-35.27 38.54 0 75.8 5.46 111.06 15.64-1.51 4.52-2.27 7.17-2.27 7.92 0 2.03.67 3.27 2 3.7.67.2 1.33.3 2 .3 1.6-3.39 3.14-6.73 4.63-10.03.03.01.05.02.08.02-5.8 16.69-8.71 26.04-8.71 28.01 0 2.03.67 3.27 2 3.7.67.2 1.33.3 2 .3.4-.93 2.93-6.78 7.6-17.55 1.27-3 2.72-6.37 4.35-10.1.26-.61.52-1.2.78-1.8 5.1 1.69 10.16 3.47 15.17 5.36 1.86 7.67 3.2 13.06 4 16.14 2.8 11 5.6 21.12 8.4 30.35z" fill="none"/><path d="m313.5-13.95-44.5-.55c-2.87.3-5.55-.72-8.05-3.05-.17-.17-.33-.35-.5-.55.03-.4.05-.87.05-1.4 0-1.07-2.95-4.42-8.85-10.05 1.83.93 3.78 1.83 5.85 2.7 18.23 7.73 36.9 12.03 56 12.9z" fill="none"/><path d="m109.92-74.78c2.71 2.84 5.17 5.16 7.38 6.93 4.23 3.4 7.25 4.52 9.05 3.35 7.53 3.57 21.27 6.73 41.2 9.5 7.27 1 17.75 2.43 31.45 4.3 10.7 1.63 17.87 3.37 21.5 5.2.63-.23 1.33-.4 2.1-.5.73.73 1.48 1.48 2.25 2.25 2.37 2.43 6.02 6.25 10.95 11.45 6.37 6.5 12 11.17 16.9 14-.13.63-.2 1.4-.2 2.3 0 1.87.07 3.08.2 3.65.23.83.8 1.52 1.7 2.05.23.13 1.12.47 2.65 1 2.3.8 6.12 2.07 11.45 3.8l79.5 1c4.2 1.57 7.22 2.62 9.05 3.15 3.3.97 5.95 1.33 7.95 1.1l.75.25c.5-.27.75-1.43.75-3.5 0-.27-.02-.55-.05-.85 1.33-1 3.1-2.65 5.3-4.95.3-.33.62-.67.95-1 2.3-2.43 4.55-4.48 6.75-6.15 2.4-1.1 4.57-2.38 6.5-3.85 4.37-2 9.47-3.4 15.3-4.2l.55-1.1c8.77-.1 15.32-.3 19.65-.6 3.97-.3 6.23-.73 6.8-1.3.1-.1.25-.38.45-.85.6-.43 1.95-.65 4.05-.65l72.45-.45c2.33 7.43 8.25 8.8 17.75 4.1 3.3-1.63 7.2-4.08 11.7-7.35 2.37-1.77 5.15-3.87 8.35-6.3-.3-.37-.6-.73-.9-1.1 5.1-4.13 9.5-10.37 13.2-18.7 1.03-2.3 3.22-7.88 6.55-16.75 4.15-6.52 8.6-13.66 13.33-21.38 109.79 71.23 182.42 194.88 182.42 335.5 0 220.71-178.92 399.63-399.63 399.63s-399.63-178.92-399.63-399.63c0-127 59.23-240.15 151.58-313.35z" fill="none"/><path d="m555.3-58.8c-3.7 8.33-8.1 14.57-13.2 18.7.3.37.6.73.9 1.1-3.2 2.43-5.98 4.53-8.35 6.3-4.5 3.27-8.4 5.72-11.7 7.35-9.5 4.7-15.42 3.33-17.75-4.1l-72.45.45c-2.1 0-3.45.22-4.05.65-.2.47-.35.75-.45.85-.57.57-2.83 1-6.8 1.3-4.33.3-10.88.5-19.65.6l-.55 1.1c-5.83.8-10.93 2.2-15.3 4.2-1.93 1.47-4.1 2.75-6.5 3.85-2.2 1.67-4.45 3.72-6.75 6.15-.33.33-.65.67-.95 1-2.2 2.3-3.97 3.95-5.3 4.95.03.3.05.58.05.85 0 2.07-.25 3.23-.75 3.5l-.75-.25c-2 .23-4.65-.13-7.95-1.1-1.83-.53-4.85-1.58-9.05-3.15l-79.5-1c-5.33-1.73-9.15-3-11.45-3.8-1.53-.53-2.42-.87-2.65-1-.9-.53-1.47-1.22-1.7-2.05-.13-.57-.2-1.78-.2-3.65 0-.9.07-1.67.2-2.3-4.9-2.83-10.53-7.5-16.9-14-4.93-5.2-8.58-9.02-10.95-11.45-.77-.77-1.52-1.52-2.25-2.25-.77.1-1.47.27-2.1.5-3.63-1.83-10.8-3.57-21.5-5.2-13.7-1.87-24.18-3.3-31.45-4.3-19.93-2.77-33.67-5.93-41.2-9.5-1.8 1.17-4.82.05-9.05-3.35-2.21-1.77-4.67-4.08-7.38-6.93 1.99-1.58 3.99-3.13 6.01-4.67 3.03 3.01 6 5.67 8.93 7.95 1.8 0 3.6.02 5.4.05.04-4.28 1.66-11.53 4.83-21.73 5.48-3.69 11.06-7.25 16.74-10.67-4.33 12.98-9.33 23.87-15.01 32.65 18.63.9 37.47 3.82 56.5 8.75 9.13 2.33 16.68 4.77 22.65 7.3.33.13.65.27.95.4.5-.27 1.03-.52 1.6-.75 2.83 1.17 6.48 3.42 10.95 6.75.1-3.07 1.63-6.95 4.6-11.65 3.27-5.2 7.53-10.13 12.8-14.8 13.47-11.9 28.33-17.97 44.6-18.2h26.1c18.73 3.53 36.23 11.3 52.5 23.3 7.57 5.6 13.5 11.32 17.8 17.15 4.57 6.13 6.85 11.82 6.85 17.05 0 .67-.03 1.33-.1 2 13.63-.73 23.52-1.4 29.65-2 4.33-.4 7.83-.93 10.5-1.6l77.5-1-.1-.5c.33-.33 1.53-.5 3.6-.5 2.27 0 3.67.28 4.2.85.1.1.22.35.35.75 2.7-.6 6.18-1.3 10.45-2.1l-.5-.5c-9.5-15.5-16.97-28.32-22.4-38.45-10.07-18.8-15.1-32.32-15.1-40.55 0-1.63.1-2.7.3-3.2.07-.17.13-.27.2-.3.33-.17 1.5-.33 3.5-.5 1.33.33 2.33.83 3 1.5 2.3 10.53 6.07 21.5 11.3 32.9-2.8-9.23-5.6-19.35-8.4-30.35-.8-3.08-2.14-8.47-4-16.14 5.75 2.16 11.43 4.45 17.05 6.87 3.28 7.63 6.6 15.24 10 22.82 7.37 16 11.05 24.13 11.05 24.4 0 1.53-.2 2.57-.6 3.1-.13.2-.28.33-.45.4-1.13 0-2.12.17-2.95.5-3.9-1.63-7.23-4.85-10-9.65-1.37-2.53-2.42-4.4-3.15-5.6-1.23-2.07-2.52-3.65-3.85-4.75v1c.07.37 1.27 3.15 3.6 8.35 2.27 5.07 3.4 7.78 3.4 8.15 0 1.27-.65 2.78-1.95 4.55-.53.7-1.1 1.37-1.7 2 4.93 8.83 10.4 17.18 16.4 25.05 1.27-3.1 4.35-9.33 9.25-18.7.9-1.77 1.82-3.52 2.75-5.25 5.69-10.72 11.52-21.03 17.5-30.97 3.43 2.08 6.82 4.22 10.18 6.39-4.73 7.72-9.18 14.85-13.33 21.38-3.35 8.87-5.54 14.45-6.57 16.75zm-197.05 48.6c.73-.73 1.57-1.58 2.5-2.55.17-.2.35-.38.55-.55h-10.5c1 .6 3.48 1.63 7.45 3.1zm-97.75-9.3c0 .53-.02 1-.05 1.4.17.2.33.38.5.55 2.5 2.33 5.18 3.35 8.05 3.05l44.5.55c-19.1-.87-37.77-5.17-56-12.9-2.07-.87-4.02-1.77-5.85-2.7 5.9 5.63 8.85 8.98 8.85 10.05zm124.5-29.65c-4.27-6.3-9.82-12.2-16.65-17.7-18.3-14.7-39.6-22.05-63.9-22.05-23.17 0-41.58 5.52-55.25 16.55-5.07 4.13-9.03 8.68-11.9 13.65-2.4 4.2-3.6 7.83-3.6 10.9 0 1.3.78 2.73 2.35 4.3.9.77 1.82 1.55 2.75 2.35.9.67 1.93 1.37 3.1 2.1 5.23 3.23 12.17 6.42 20.8 9.55 19.93 7.23 39.05 11.22 57.35 11.95l45.7-.25c1.3-1.3 2.4-2.35 3.3-3.15 4.57-4.03 9.23-6.92 14-8.65-.2-.5-.3-.97-.3-1.4 1-1 2.33-1.83 4-2.5 1.23-.07 2.45-.13 3.65-.2.2-.73.3-1.43.3-2.1 0-3.33-1.9-7.78-5.7-13.35z"/><path d="m478.35-129.05c-4.67 10.77-7.2 16.62-7.6 17.55-.67 0-1.33-.1-2-.3-1.33-.43-2-1.67-2-3.7 0-1.97 2.91-11.31 8.71-28.01 2.69.82 5.36 1.68 8.02 2.56-.26.6-.51 1.19-.78 1.8-1.63 3.73-3.08 7.1-4.35 10.1z"/><path d="m468.75-133.8c-1.33-.43-2-1.67-2-3.7 0-.75.76-3.4 2.27-7.92 2.13.61 4.25 1.24 6.36 1.89-1.49 3.3-3.03 6.64-4.63 10.03-.67 0-1.33-.1-2-.3z"/><path d="m193.2-117.5c-.53.77-1.52 1.43-2.95 2-1.13-2.01-2.39-4.35-3.77-7 2.35-1.12 4.72-2.22 7.09-3.3.45 1.43.68 2.53.68 3.29 0 2.31-.35 3.98-1.05 5.01z"/><path d="m357.97 638.2c-220.71 0-399.63-178.92-399.63-399.63 0-129.72 61.81-245.01 157.59-318.01 3.03 3.01 6 5.67 8.93 7.95 1.8 0 3.6.02 5.4.05.04-4.28 1.66-11.53 4.83-21.73 5.48-3.69 11.06-7.25 16.74-10.67-4.33 12.98-9.33 23.87-15.01 32.65 18.63.9 37.47 3.82 56.5 8.75 9.13 2.33 16.68 4.77 22.65 7.3.33.13.65.27.95.4.5-.27 1.03-.52 1.6-.75 2.83 1.17 6.48 3.42 10.95 6.75.1-3.07 1.63-6.95 4.6-11.65 3.27-5.2 7.53-10.13 12.8-14.8 13.47-11.9 28.33-17.97 44.6-18.2h26.1c18.73 3.53 36.23 11.3 52.5 23.3 7.57 5.6 13.5 11.32 17.8 17.15 4.57 6.13 6.85 11.82 6.85 17.05 0 .67-.03 1.33-.1 2 13.63-.73 23.52-1.4 29.65-2 4.33-.4 7.83-.93 10.5-1.6l77.5-1-.1-.5c.33-.33 1.53-.5 3.6-.5 2.27 0 3.67.28 4.2.85.1.1.22.35.35.75 2.7-.6 6.18-1.3 10.45-2.1l-.5-.5c-9.5-15.5-16.97-28.32-22.4-38.45-10.07-18.8-15.1-32.32-15.1-40.55 0-1.63.1-2.7.3-3.2.07-.17.13-.27.2-.3.33-.17 1.5-.33 3.5-.5 1.33.33 2.33.83 3 1.5 2.3 10.53 6.07 21.5 11.3 32.9-2.8-9.23-5.6-19.35-8.4-30.35-.8-3.08-2.14-8.47-4-16.14 5.75 2.16 11.43 4.45 17.05 6.87 3.28 7.63 6.6 15.24 10 22.82 7.37 16 11.05 24.13 11.05 24.4 0 1.53-.2 2.57-.6 3.1-.13.2-.28.33-.45.4-1.13 0-2.12.17-2.95.5-3.9-1.63-7.23-4.85-10-9.65-1.37-2.53-2.42-4.4-3.15-5.6-1.23-2.07-2.52-3.65-3.85-4.75v1c.07.37 1.27 3.15 3.6 8.35 2.27 5.07 3.4 7.78 3.4 8.15 0 1.27-.65 2.78-1.95 4.55-.53.7-1.1 1.37-1.7 2 4.93 8.83 10.4 17.18 16.4 25.05 1.27-3.1 4.35-9.33 9.25-18.7.9-1.77 1.82-3.52 2.75-5.25 5.69-10.72 11.52-21.03 17.5-30.97 115.44 70.06 192.58 196.96 192.58 341.88 0 220.71-178.93 399.63-399.63 399.63zm-100.47-665.05c-2.07-.87-4.02-1.77-5.85-2.7 5.9 5.63 8.85 8.98 8.85 10.05 0 .53-.02 1-.05 1.4.17.2.33.38.5.55 2.5 2.33 5.18 3.35 8.05 3.05l44.5.55c-19.1-.87-37.77-5.17-56-12.9zm93.3 13.55c1 .6 3.48 1.63 7.45 3.1.73-.73 1.57-1.58 2.5-2.55.17-.2.35-.38.55-.55z" fill="none"/><path d="m193.2-117.5c-.53.77-1.52 1.43-2.95 2-1.13-2.01-2.39-4.35-3.77-7 2.35-1.12 4.72-2.22 7.09-3.3.45 1.43.68 2.53.68 3.29 0 2.31-.35 3.98-1.05 5.01z" fill="none"/><path d="m478.35-129.05c-4.67 10.77-7.2 16.62-7.6 17.55-.67 0-1.33-.1-2-.3-1.33-.43-2-1.67-2-3.7 0-1.97 2.91-11.31 8.71-28.01 2.69.82 5.36 1.68 8.02 2.56-.26.6-.51 1.19-.78 1.8-1.63 3.73-3.08 7.1-4.35 10.1z" fill="none"/><path d="m468.75-133.8c-1.33-.43-2-1.67-2-3.7 0-.75.76-3.4 2.27-7.92 2.13.61 4.25 1.24 6.36 1.89-1.49 3.3-3.03 6.64-4.63 10.03-.67 0-1.33-.1-2-.3z" fill="none"/><path d="m358.25-10.2c-3.97-1.47-6.45-2.5-7.45-3.1h10.5c-.2.17-.38.35-.55.55-.93.97-1.77 1.82-2.5 2.55z" fill="#666"/><path d="m260.95-17.55c-.17-.17-.33-.35-.5-.55.03-.4.05-.87.05-1.4 0-1.07-2.95-4.42-8.85-10.05 1.83.93 3.78 1.83 5.85 2.7 18.23 7.73 36.9 12.03 56 12.9l-44.5-.55c-2.87.3-5.55-.72-8.05-3.05z" fill="#666"/><path d="m124.85-71.5c-2.92-2.28-5.9-4.94-8.93-7.95 6.24-4.76 12.63-9.34 19.15-13.73-3.17 10.2-4.78 17.45-4.83 21.73-1.79-.03-3.59-.05-5.39-.05z" fill="#666"/><path d="m544.75-67.1c-4.9 9.37-7.98 15.6-9.25 18.7-6-7.87-11.47-16.22-16.4-25.05.6-.63 1.17-1.3 1.7-2 1.3-1.77 1.95-3.28 1.95-4.55 0-.37-1.13-3.08-3.4-8.15-2.33-5.2-3.53-7.98-3.6-8.35v-1c1.33 1.1 2.62 2.68 3.85 4.75.73 1.2 1.78 3.07 3.15 5.6 2.77 4.8 6.1 8.02 10 9.65.83-.33 1.82-.5 2.95-.5.17-.07.32-.2.45-.4.4-.53.6-1.57.6-3.1 0-.27-3.68-8.4-11.05-24.4-3.41-7.58-6.73-15.2-10-22.82 17.08 7.35 33.55 15.84 49.3 25.4-5.97 9.94-11.81 20.25-17.5 30.97-.93 1.73-1.85 3.48-2.75 5.25z" fill="#666"/><path d="m511.05-89.1c-5.23-11.4-9-22.37-11.3-32.9-.67-.67-1.67-1.17-3-1.5-2 .17-3.17.33-3.5.5-.07.03-.13.13-.2.3-.2.5-.3 1.57-.3 3.2 0 8.23 5.03 21.75 15.1 40.55 5.43 10.13 12.9 22.95 22.4 38.45l.5.5c-4.27.8-7.75 1.5-10.45 2.1-.13-.4-.25-.65-.35-.75-.53-.57-1.93-.85-4.2-.85-2.07 0-3.27.17-3.6.5l.1.5-77.5 1c-2.67.67-6.17 1.2-10.5 1.6-6.13.6-16.02 1.27-29.65 2 .07-.67.1-1.33.1-2 0-5.23-2.28-10.92-6.85-17.05-4.3-5.83-10.23-11.55-17.8-17.15-16.27-12-33.77-19.77-52.5-23.3h-26.1c-16.27.23-31.13 6.3-44.6 18.2-5.27 4.67-9.53 9.6-12.8 14.8-2.97 4.7-4.5 8.58-4.6 11.65-4.47-3.33-8.12-5.58-10.95-6.75-.57.23-1.1.48-1.6.75-.3-.13-.62-.27-.95-.4-5.97-2.53-13.52-4.97-22.65-7.3-19.03-4.93-37.87-7.85-56.5-8.75 5.68-8.78 10.68-19.67 15.01-32.65 11.21-6.76 22.78-12.99 34.67-18.65 1.38 2.64 2.64 4.98 3.77 7 1.43-.57 2.42-1.23 2.95-2 .7-1.03 1.05-2.7 1.05-5 0-.76-.23-1.86-.68-3.29 50.14-22.66 105.79-35.27 164.39-35.27 38.54 0 75.8 5.46 111.06 15.64-1.51 4.52-2.27 7.17-2.27 7.92 0 2.03.67 3.27 2 3.7.67.2 1.33.3 2 .3 1.6-3.39 3.14-6.73 4.63-10.03.03.01.05.02.08.02-5.8 16.69-8.71 26.04-8.71 28.01 0 2.03.67 3.27 2 3.7.67.2 1.33.3 2 .3.4-.93 2.93-6.78 7.6-17.55 1.27-3 2.72-6.37 4.35-10.1.26-.61.52-1.2.78-1.8 5.1 1.69 10.16 3.47 15.17 5.36 1.86 7.67 3.2 13.06 4 16.14 2.8 11 5.6 21.12 8.4 30.35z" fill="#666"/><path clip-rule="evenodd" d="m365.75-17.8c1.3-1.3 2.4-2.35 3.3-3.15 4.57-4.03 9.23-6.92 14-8.65-.2-.5-.3-.97-.3-1.4 1-1 2.33-1.83 4-2.5 1.23-.07 2.45-.13 3.65-.2.2-.73.3-1.43.3-2.1 0-3.33-1.9-7.78-5.7-13.35-4.27-6.3-9.82-12.2-16.65-17.7-18.3-14.7-39.6-22.05-63.9-22.05-23.17 0-41.58 5.52-55.25 16.55-5.07 4.13-9.03 8.68-11.9 13.65-2.4 4.2-3.6 7.83-3.6 10.9 0 1.3.78 2.73 2.35 4.3.9.77 1.82 1.55 2.75 2.35.9.67 1.93 1.37 3.1 2.1 5.23 3.23 12.17 6.42 20.8 9.55 19.93 7.23 39.05 11.22 57.35 11.95z" fill="#333" fill-rule="evenodd"/></symbol><linearGradient id="e" gradientTransform="matrix(.9908 .1353 -.1353 .9908 -23.0284 18.8235)" gradientUnits="userSpaceOnUse" x1="349.5543" x2="691.5999" y1="323.5832" y2="323.5832"><stop offset="0" stop-opacity=".298"/><stop offset="1" stop-color="#fff" stop-opacity="0"/></linearGradient><circle clip-rule="evenodd" cx="405" cy="405" fill="#ddd" fill-rule="evenodd" r="399.63"/><use height="799.26" transform="matrix(1 0 0 -1 47.0349 643.5658)" width="799.26" x="-41.66" xlink:href="#d" y="-161.06"/><path clip-rule="evenodd" d="m385.99 475.02c6.37 2.97 9.55 15.2 9.55 36.7-.07-2.77-2.07 8.02-6 32.35-4 24.77-6 40.27-6 46.5 0 20.03 4 40.63 12 61.8.07.13.13.3.2.5.93 2.4 3.62 8.92 8.05 19.55 2.5 6 3.75 10.05 3.75 12.15 0 1.47-.7 3.18-2.1 5.15-2.1 2.93-5.38 5.57-9.85 7.9-13.2 6.97-34.55 10.45-64.05 10.45-9.43 0-16.78-2.15-22.05-6.45-3.97-3.2-5.95-6.47-5.95-9.8 0-2.93 1.1-7 3.3-12.2.43-1.03 2.88-6.25 7.35-15.65 1.83-3.87 3.45-7.57 4.85-11.1 4.07-10.37 6.23-19.22 6.5-26.55.83-24.6 2.17-46.6 4-66 1.33-9.3 5.52-21.32 12.55-36.05 7.17-15.07 14.63-27.32 22.4-36.75 8.93-10.8 16.09-14.97 21.5-12.5z" fill="#f0bc97" fill-rule="evenodd"/><path clip-rule="evenodd" d="m385.99 475.02c-5.4-2.47-12.57 1.7-21.5 12.5-7.77 9.43-15.23 21.68-22.4 36.75-7.03 14.73-11.22 26.75-12.55 36.05-1.83 19.4-3.17 41.4-4 66-.27 7.33-2.43 16.18-6.5 26.55-1.4 3.53-3.02 7.23-4.85 11.1-4.47 9.4-6.92 14.62-7.35 15.65-2.2 5.2-3.3 9.27-3.3 12.2 0 3.33 1.98 6.6 5.95 9.8 5.27 4.3 12.62 6.45 22.05 6.45 29.5 0 50.85-3.48 64.05-10.45 4.47-2.33 7.75-4.97 9.85-7.9 1.4-1.97 2.1-3.68 2.1-5.15 0-2.1-1.25-6.15-3.75-12.15-4.43-10.63-7.12-17.15-8.05-19.55-.07-.2-.13-.37-.2-.5-8-21.17-12-41.77-12-61.8 0-6.23 2-21.73 6-46.5 3.93-24.33 5.93-35.12 6-32.35-.01-21.5-3.19-33.74-9.55-36.7zm19.54 24.05c-2.33 11.6-4.67 23.5-7 35.7-4.67 24.47-7 43.07-7 55.8 0 20.03 4 39.48 12 58.35.5 1.2 1.07 2.52 1.7 3.95 1.77 4.17 3.95 9.27 6.55 15.3 2.5 6.63 3.75 12.6 3.75 17.9 0 7.73-4.98 14.25-14.95 19.55-14.4 7.63-37.75 11.45-70.05 11.45-11.07 0-20.05-3.3-26.95-9.9-2.6-2.47-4.65-5.18-6.15-8.15-1.27-2.53-1.9-4.68-1.9-6.45 0-2 1.15-6 3.45-12 3.2-7.93 5.72-14.2 7.55-18.8 1.27-3.13 2.42-6.1 3.45-8.9 5.03-13.6 7.55-23.45 7.55-29.55.67-7.5 1.33-18.75 2-33.75s1.33-26.25 2-33.75c6.1-25.27 14.13-45.98 24.1-62.15 8.73-14.17 17.95-23.38 27.65-27.65 9.07-3.97 16.67-2.95 22.8 3.05 6.31 6.2 9.45 16.2 9.45 30z" fill-rule="evenodd"/><path clip-rule="evenodd" d="m374.64 638.02c0-1.03.05-1.62.15-1.75l.1.15c1.57-.77 2.8-.6 3.7.5.7.87 1.05 1.95 1.05 3.25 0 1.97-2.47 6.52-7.4 13.65-4.67 6.77-7.9 10.8-9.7 12.1-.83-.33-1.5-.75-2-1.25.67-1.37 3.65-6.03 8.95-14 3.43-5.2 5.15-9.42 5.15-12.65z" fill-rule="evenodd"/><use height="799.26" transform="matrix(1 0 0 -1 94.2351 562.0658)" width="799.26" x="-88.87" xlink:href="#c" y="-242.56"/><g clip-rule="evenodd" fill-rule="evenodd"><path d="m244.74 390.07c0 .4.73.77 2.2 1.1 2.37.57 4.07 1.05 5.1 1.45 5.23 2.03 8.63 5.93 10.2 11.7 1.67 6.13 2.5 11.55 2.5 16.25 0 1.2-.5 4.35-1.5 9.45-1 5.13-1.5 7.73-1.5 7.8 0 1.03.08 1.67.25 1.9h.25c.07.17.2.33.4.5.37.33 1.07.5 2.1.5 3.33 0 5.33-3.28 6-9.85.33-3.3.33-6.68 0-10.15 0-7.37-1.35-13.88-4.05-19.55-2.27-4.73-5.25-8.47-8.95-11.2-3.2-2.4-6.18-3.57-8.95-3.5-2.7.06-4.05 1.26-4.05 3.6zm144.25-283.95v.2c0 .2 1.38.62 4.15 1.25.07 0 .13.02.2.05.6.3 1.15.5 1.65.6.1-.1.2-.18.3-.25 7.47 1.5 21.57 3.9 42.3 7.2 33.9 5.37 52.42 8.72 55.55 10.05 5.7 2.43 12.95 6.47 21.75 12.1 8.07 5.23 15.18 10.32 21.35 15.25 10.07 8.07 20.35 18.55 30.85 31.45 6.6 8.03 14.65 18.88 24.15 32.55 8.93 12.73 16.03 23.8 21.3 33.2 7.03 12.5 11.85 23.73 14.45 33.7.73 2.8 1.83 8.1 3.3 15.9 1.33 7.03 2.65 12.77 3.95 17.2 1.07 3.63 2.7 7.02 4.9 10.15 1.1 1.57 3.1 3.97 6 7.2 2.43 2.73 4.13 4.97 5.1 6.7 1.43 2.63 2.15 5.5 2.15 8.6 0 2.87-.83 6.12-2.5 9.75-2.33 4.43-4.17 8.02-5.5 10.75-5.33 10.8-8 22.72-8 35.75 0 6.6 2.35 12.67 7.05 18.2 1.63 1.93 4.03 4.33 7.2 7.2 4.9 4.5 7.65 7.03 8.25 7.6 6.93 6.7 12.08 13.72 15.45 21.05 4.7 10.13 7.05 22.4 7.05 36.8 0 10.1-2.67 20.63-8 31.6-3.23 6.6-9.1 16.08-17.6 28.45-8.53 12.43-14.38 21.88-17.55 28.35-5.33 10.83-8 21.23-8 31.2 0 3.6 1.68 11.57 5.05 23.9 3.4 12.33 5.1 19.42 5.1 21.25 0 6.47-1.95 11.85-5.85 16.15-3.87 4.27-10.23 8.13-19.1 11.6-7.87 3.03-19.38 6.37-34.55 10-8.07 1.93-25.48 5.8-52.25 11.6h-43.75c-19.73-5.93-36.32-13.2-49.75-21.8-10.83-6.93-20.68-15.53-29.55-25.8-1.6-1.83-8.82-11.2-21.65-28.1-8.87-11.63-17.55-21.18-26.05-28.65-7.13-6.27-13.58-15-19.35-26.2-3.2-6.23-7.33-16-12.4-29.3-4.53-11.87-7.32-21.53-8.35-29-.6-4.37-.9-12.95-.9-25.75 0-1.67-.08-2.42-.25-2.25-.1 0-.42-.12-.95-.35-.57-.27-1.33-.4-2.3-.4-1.93 0-3.1 1.48-3.5 4.45v4.7c0 9.17 1.15 18.75 3.45 28.75 1.37 5.8 3.1 11.75 5.2 17.85-3.57-4.27-8.15-9.5-13.75-15.7-14.23-15.77-24.58-26.53-31.05-32.3-8.53-7.7-16.35-15.38-23.45-23.05 10.43 6.2 21.92 9.3 34.45 9.3 2.17 0 5.17-1.93 9-5.8 3.43-3.47 5.15-5.48 5.15-6.05 0-1.67-.08-2.42-.25-2.25l-.65-.5c-.4-.33-1.1-.5-2.1-.5-.73 0-2.65 1.48-5.75 4.45-1.53 1.47-3 2.93-4.4 4.4-31.03 0-55.12-20.03-72.25-60.1-.4-.97-.82-1.93-1.25-2.9l-1.15-2.95c-1.4-3.73-2.78-7.58-4.15-11.55l-1.65-5.25c-1.9-6.37-3.58-12.98-5.05-19.85-2.33-10.83-3.5-18.08-3.5-21.75 0-5.63 1.33-11.27 4-16.9 4.13-8.83 10.52-13.25 19.15-13.25 14.53 0 27.07 8.75 37.6 26.25 2.2 3.63 5.3 9.65 9.3 18.05 2.63 5.47 4.45 8.2 5.45 8.2 1.03 0 1.85-.08 2.45-.25l.55-.25c0-.1.08-.38.25-.85s.25-1.18.25-2.15c0-9.87-4.43-19.97-13.3-30.3-8.4-9.8-18.15-16.93-29.25-21.4-11.83-4.8-21.58-4.92-29.25-.35-6.3 3.77-10.37 10.42-12.2 19.95-1.4-9.13-2.1-17.38-2.1-24.75 0-15.5 2.48-33.23 7.45-53.2 6.67-26.73 16.6-50.73 29.8-72 16.73-27 37.82-47.82 63.25-62.45 28.23-16.24 61.18-24.39 98.85-24.45z" fill="#f0bc97"/><path d="m282.14 127.17c30.07-18.3 65.68-27.45 106.85-27.45 5.57.03 9.18.52 10.85 1.45.5.3.83.75 1 1.35 8.13-.1 20.43 1.08 36.9 3.55 12.4 1.83 24.32 4.02 35.75 6.55 11.27 2.47 18.23 4.42 20.9 5.85 10.23 5.4 17.43 9.35 21.6 11.85 7.83 4.63 14.92 9.55 21.25 14.75 10.67 8.7 21.57 19.7 32.7 33 5.77 6.9 14.45 18.15 26.05 33.75 8.3 11.1 15.62 22.55 21.95 34.35 6.63 12.33 11.48 23.68 14.55 34.05.8 2.73 1.9 8.42 3.3 17.05 1.1 6.93 2.63 12.53 4.6 16.8 2.33 5.13 4.78 9.47 7.35 13 .97 1.3 2.87 3.53 5.7 6.7 1.8 2.03 3.02 3.9 3.65 5.6.87 2.3 1.3 5.5 1.3 9.6 0 5.17-.83 9.67-2.5 13.5-.6 1.43-2.43 4.6-5.5 9.5-2.5 4.03-4.33 8.02-5.5 11.95-1.67 5.67-2.5 12.63-2.5 20.9 0 4.53 2.35 9.6 7.05 15.2 6.53 6.9 11.68 12.5 15.45 16.8 6.83 7.83 11.98 15.68 15.45 23.55 4.7 10.6 7.05 22.42 7.05 35.45 0 12.27-2.65 24.03-7.95 35.3-3.43 7.23-9.28 16.43-17.55 27.6-8.83 11.87-14.68 20.52-17.55 25.95-5.3 10.1-7.95 20.27-7.95 30.5 0 2.77 1.67 9.98 5 21.65s5 19.75 5 24.25c0 7.6-1.7 13.83-5.1 18.7-3.6 5.1-9.68 9.6-18.25 13.5-8.2 3.77-20.07 7.58-35.6 11.45-12.77 3.17-31.87 7.28-57.3 12.35h-46c-15.6-4-31.22-11.3-46.85-21.9-13.27-9.03-23.28-17.95-30.05-26.75-6-7.73-14.33-17.13-25-28.2-16.23-16.87-24.85-25.83-25.85-26.9-12.4-13.5-22.72-29.33-30.95-47.5-.17 0-.35 0-.55 0-2.8 0-9.83-6.97-21.1-20.9-15.3-19-26.57-32.03-33.8-39.1-13.77-13.43-24.08-24.02-30.95-31.75-10.5-11.77-17.77-21.8-21.8-30.1-10.37-21.27-18.43-42.27-24.2-63-6.27-22.5-9.4-43.33-9.4-62.5 0-16.17 2.38-34.3 7.15-54.4 6.43-27.03 16.12-51.35 29.05-72.95 16.4-27.37 37.16-48.69 62.3-63.95zm-55.25 65.85c-13.2 21.27-23.13 45.27-29.8 72-4.97 19.97-7.45 37.7-7.45 53.2 0 7.37.7 15.62 2.1 24.75 1.83-9.53 5.9-16.18 12.2-19.95 7.67-4.57 17.42-4.45 29.25.35 11.1 4.47 20.85 11.6 29.25 21.4 8.87 10.33 13.3 20.43 13.3 30.3 0 .97-.08 1.68-.25 2.15s-.25.75-.25.85l-.55.25c-.6.17-1.42.25-2.45.25-1 0-2.82-2.73-5.45-8.2-4-8.4-7.1-14.42-9.3-18.05-10.53-17.5-23.07-26.25-37.6-26.25-8.63 0-15.02 4.42-19.15 13.25-2.67 5.63-4 11.27-4 16.9 0 3.67 1.17 10.92 3.5 21.75 1.47 6.87 3.15 13.48 5.05 19.85l1.65 5.25c1.37 3.97 2.75 7.82 4.15 11.55l1.15 2.95c.43.97.85 1.93 1.25 2.9 17.13 40.07 41.22 60.1 72.25 60.1 1.4-1.47 2.87-2.93 4.4-4.4 3.1-2.97 5.02-4.45 5.75-4.45 1 0 1.7.17 2.1.5l.65.5c.17-.17.25.58.25 2.25 0 .57-1.72 2.58-5.15 6.05-3.83 3.87-6.83 5.8-9 5.8-12.53 0-24.02-3.1-34.45-9.3 7.1 7.67 14.92 15.35 23.45 23.05 6.47 5.77 16.82 16.53 31.05 32.3 5.6 6.2 10.18 11.43 13.75 15.7-2.1-6.1-3.83-12.05-5.2-17.85-2.3-10-3.45-19.58-3.45-28.75 0-.13 0-1.7 0-4.7.4-2.97 1.57-4.45 3.5-4.45.97 0 1.73.13 2.3.4.53.23.85.35.95.35.17-.17.25.58.25 2.25 0 12.8.3 21.38.9 25.75 1.03 7.47 3.82 17.13 8.35 29 5.07 13.3 9.2 23.07 12.4 29.3 5.77 11.2 12.22 19.93 19.35 26.2 8.5 7.47 17.18 17.02 26.05 28.65 12.83 16.9 20.05 26.27 21.65 28.1 8.87 10.27 18.72 18.87 29.55 25.8 13.43 8.6 30.02 15.87 49.75 21.8h43.75c26.77-5.8 44.18-9.67 52.25-11.6 15.17-3.63 26.68-6.97 34.55-10 8.87-3.47 15.23-7.33 19.1-11.6 3.9-4.3 5.85-9.68 5.85-16.15 0-1.83-1.7-8.92-5.1-21.25-3.37-12.33-5.05-20.3-5.05-23.9 0-9.97 2.67-20.37 8-31.2 3.17-6.47 9.02-15.92 17.55-28.35 8.5-12.37 14.37-21.85 17.6-28.45 5.33-10.97 8-21.5 8-31.6 0-14.4-2.35-26.67-7.05-36.8-3.37-7.33-8.52-14.35-15.45-21.05-.6-.57-3.35-3.1-8.25-7.6-3.17-2.87-5.57-5.27-7.2-7.2-4.7-5.53-7.05-11.6-7.05-18.2 0-13.03 2.67-24.95 8-35.75 1.33-2.73 3.17-6.32 5.5-10.75 1.67-3.63 2.5-6.88 2.5-9.75 0-3.1-.72-5.97-2.15-8.6-.97-1.73-2.67-3.97-5.1-6.7-2.9-3.23-4.9-5.63-6-7.2-2.2-3.13-3.83-6.52-4.9-10.15-1.3-4.43-2.62-10.17-3.95-17.2-1.47-7.8-2.57-13.1-3.3-15.9-2.6-9.97-7.42-21.2-14.45-33.7-5.27-9.4-12.37-20.47-21.3-33.2-9.5-13.67-17.55-24.52-24.15-32.55-10.5-12.9-20.78-23.38-30.85-31.45-6.17-4.93-13.28-10.02-21.35-15.25-8.8-5.63-16.05-9.67-21.75-12.1-3.13-1.33-21.65-4.68-55.55-10.05-20.73-3.3-34.83-5.7-42.3-7.2-.1.07-.2.15-.3.25-.5-.1-1.05-.3-1.65-.6-.07-.03-.13-.05-.2-.05-2.77-.63-4.15-1.05-4.15-1.25 0-.07 0-.13 0-.2-37.67.07-70.62 8.22-98.85 24.45-25.44 14.63-46.52 35.45-63.25 62.45zm30.85 196.95c3.7 2.73 6.68 6.47 8.95 11.2 2.7 5.67 4.05 12.18 4.05 19.55.33 3.47.33 6.85 0 10.15-.67 6.57-2.67 9.85-6 9.85-1.03 0-1.73-.17-2.1-.5-.2-.17-.33-.33-.4-.5h-.25c-.17-.23-.25-.87-.25-1.9 0-.07.5-2.67 1.5-7.8 1-5.1 1.5-8.25 1.5-9.45 0-4.7-.83-10.12-2.5-16.25-1.57-5.77-4.97-9.67-10.2-11.7-1.03-.4-2.73-.88-5.1-1.45-1.47-.33-2.2-.7-2.2-1.1 0-2.33 1.35-3.53 4.05-3.6 2.76-.07 5.75 1.1 8.95 3.5z"/><path d="m375.28 98.69c-16.22.82-31.53 3.15-45.92 7 15.62-5.42 30.14-7.86 43.58-7.33zm213.18 102.1.75.23h-.57c-.07-.08-.12-.15-.18-.23zm-9.43-2.25c-1.84-.85-3.91-1.85-6.2-2.97-4.73-2.33-9.7-4.87-14.9-7.6-3.63-1.57-11.43-3.53-23.4-5.9-15.13-3-28.03-6.03-38.7-9.1h-48.4c-46.67 2.47-79.82 16.08-99.45 40.85-12.77 16.1-19.15 35.82-19.15 59.15 0 11.37 1.67 21.35 5 29.95 1.77 4.6 2.92 7.9 3.45 9.9 1.03 4.13 1.55 8.9 1.55 14.3 0 1.7-.68 2.98-2.05 3.85-.67.43-2.23 1.02-4.7 1.75-5 1.47-8.08 4.13-9.25 8-.6 2.07-.78 5.13-.55 9.2.37 4.03.55 6.47.55 7.3 0 6.93.75 16.68 2.25 29.25 1.63 13.7 2.55 23.25 2.75 28.65.23 6.9 2.13 16.28 5.7 28.15 4.67 15.37 7.43 25.23 8.3 29.6 1.7 8.53 4.37 18.38 8 29.55 2.27 6.97 5.6 16.4 10 28.3 4.83 13.27 9.65 24.17 14.45 32.7 9.1 16.2 17.98 24.3 26.65 24.3.57 0 1.22-1.5 1.95-4.5.7-2.8 1.05-4.93 1.05-6.4 0-6.73-.5-17.1-1.5-31.1s-1.5-24.5-1.5-31.5c0-.6-.12-3.32-.35-8.15.03-5.37.67-10.15 1.9-14.35 3.87-13.23 13.18-19.85 27.95-19.85 3.73 0 9.75 3.18 18.05 9.55 10.9 8.93 19.68 15.97 26.35 21.1 12.13 9.33 23.18 16.48 33.15 21.45 13.37 6.6 26.18 10.1 38.45 10.5l25.75.5c2 2.5 4.23 4.73 6.7 6.7 4.83 3.87 10.43 5.8 16.8 5.8 7.87 0 14.72-1.22 20.55-3.65 3.97-1.67 8.28-4.37 12.95-8.1 5.4-4.3 9.07-7 11-8.1 4.4-2.43 9.28-3.65 14.65-3.65 6.2 0 11.02 1.42 14.45 4.25.67.55 1.26 1.12 1.78 1.7l.15.28c-3.43 6.29-8.67 14.57-15.72 24.82-8.53 12.43-14.38 21.88-17.55 28.35-5.33 10.83-8 21.23-8 31.2 0 3.6 1.68 11.57 5.05 23.9 3.4 12.33 5.1 19.42 5.1 21.25 0 6.47-1.95 11.85-5.85 16.15-3.87 4.27-10.23 8.13-19.1 11.6-7.87 3.03-19.38 6.37-34.55 10-8.07 1.93-25.48 5.8-52.25 11.6h-43.75c-19.73-5.93-36.32-13.2-49.75-21.8-10.83-6.93-20.68-15.53-29.55-25.8-1.6-1.83-8.82-11.2-21.65-28.1-8.87-11.63-17.55-21.18-26.05-28.65-7.13-6.27-13.58-15-19.35-26.2-3.2-6.23-7.33-16-12.4-29.3-4.53-11.87-7.32-21.53-8.35-29-.6-4.37-.9-12.95-.9-25.75 0-1.67-.08-2.42-.25-2.25-.1 0-.42-.12-.95-.35-.57-.27-1.33-.4-2.3-.4-1.93 0-3.1 1.48-3.5 4.45v4.7c0 9.17 1.15 18.75 3.45 28.75 1.37 5.8 3.1 11.75 5.2 17.85-3.57-4.27-8.15-9.5-13.75-15.7-14.23-15.77-24.58-26.53-31.05-32.3-8.53-7.7-16.35-15.38-23.45-23.05 10.43 6.2 21.92 9.3 34.45 9.3 2.17 0 5.17-1.93 9-5.8 3.43-3.47 5.15-5.48 5.15-6.05 0-1.67-.08-2.42-.25-2.25l-.65-.5c-.4-.33-1.1-.5-2.1-.5-.73 0-2.65 1.48-5.75 4.45-1.53 1.47-3 2.93-4.4 4.4-22.43 0-41.23-10.47-56.4-31.4-6.45-12-12.56-26.28-18.35-42.85-5.29-15.2-9.79-29.44-13.5-42.73-.5-3.23-.75-5.68-.75-7.38 0-5.63 1.33-11.27 4-16.9 4.13-8.83 10.52-13.25 19.15-13.25 14.53 0 27.07 8.75 37.6 26.25 2.2 3.63 5.3 9.65 9.3 18.05 2.63 5.47 4.45 8.2 5.45 8.2 1.03 0 1.85-.08 2.45-.25l.55-.25c0-.1.08-.38.25-.85s.25-1.18.25-2.15c0-9.87-4.43-19.97-13.3-30.3-8.4-9.8-18.15-16.93-29.25-21.4-11.83-4.8-21.58-4.92-29.25-.35-6.06 3.62-10.05 9.92-11.98 18.88-.39-1.71-.74-3.4-1.07-5.07-.83-6.73-1.25-12.93-1.25-18.6 0-15.5 2.48-33.23 7.45-53.2 6.67-26.73 16.6-50.73 29.8-72 16.73-27 37.82-47.82 63.25-62.45 28.23-16.23 61.18-24.38 98.85-24.45v.2c0 .2 1.38.62 4.15 1.25.07 0 .13.02.2.05.6.3 1.15.5 1.65.6.1-.1.2-.18.3-.25 7.47 1.5 21.57 3.9 42.3 7.2 33.9 5.37 52.42 8.72 55.55 10.05 5.7 2.43 12.95 6.47 21.75 12.1 8.07 5.23 15.18 10.32 21.35 15.25 10.07 8.07 20.35 18.55 30.85 31.45 3.64 4.43 7.72 9.72 12.24 15.87zm-67.34 517.18h8.33l-1.93.35c-2.23-.12-4.36-.23-6.4-.35zm160.52-173.68c-.92 2.47-2.37 4.87-4.38 7.18-.47.54-1.03 1.14-1.67 1.8 2.24-3.18 4.26-6.17 6.05-8.98zm-410.27-139.07c1.67 6.13 2.5 11.55 2.5 16.25 0 1.2-.5 4.35-1.5 9.45-1 5.13-1.5 7.73-1.5 7.8 0 1.03.08 1.67.25 1.9h.25c.07.17.2.33.4.5.37.33 1.07.5 2.1.5 3.33 0 5.33-3.28 6-9.85.33-3.3.33-6.68 0-10.15 0-7.37-1.35-13.88-4.05-19.55-2.27-4.73-5.25-8.47-8.95-11.2-3.2-2.4-6.18-3.57-8.95-3.5-2.7.07-4.05 1.27-4.05 3.6 0 .4.73.77 2.2 1.1 2.37.57 4.07 1.05 5.1 1.45 5.23 2.03 8.63 5.93 10.2 11.7z" fill="#3a1d00"/><path d="m588.46 200.79c.06.08.11.15.18.23h-1.75c-3.3-.71-5.69-1.22-7.15-1.52-.23-.32-.47-.63-.7-.95-4.52-6.15-8.61-11.44-12.25-15.88-10.5-12.9-20.78-23.38-30.85-31.45-6.17-4.93-13.28-10.02-21.35-15.25-8.8-5.63-16.05-9.67-21.75-12.1-3.13-1.33-21.65-4.68-55.55-10.05-20.73-3.3-34.83-5.7-42.3-7.2-.1.07-.2.15-.3.25-.5-.1-1.05-.3-1.65-.6-.07-.03-.13-.05-.2-.05-2.77-.63-4.15-1.05-4.15-1.25 0-.07 0-.13 0-.2-37.67.07-70.62 8.22-98.85 24.45-25.43 14.63-46.52 35.45-63.25 62.45-13.2 21.27-23.13 45.27-29.8 72-4.97 19.97-7.45 37.7-7.45 53.2 0 5.67.42 11.87 1.25 18.6.24 2 .53 4.05.85 6.15.07-.36.14-.72.22-1.08 1.92-8.96 5.91-15.25 11.98-18.88 7.67-4.57 17.42-4.45 29.25.35 11.1 4.47 20.85 11.6 29.25 21.4 8.87 10.33 13.3 20.43 13.3 30.3 0 .97-.08 1.68-.25 2.15s-.25.75-.25.85l-.55.25c-.6.17-1.42.25-2.45.25-1 0-2.82-2.73-5.45-8.2-4-8.4-7.1-14.42-9.3-18.05-10.53-17.5-23.07-26.25-37.6-26.25-8.63 0-15.02 4.42-19.15 13.25-2.67 5.63-4 11.27-4 16.9 0 1.69.25 4.15.75 7.38.58 3.75 1.49 8.54 2.75 14.38 1.47 6.87 3.15 13.48 5.05 19.85l1.65 5.25c1.37 3.97 2.75 7.82 4.15 11.55l1.15 2.95c.43.97.85 1.93 1.25 2.9 4.75 11.11 10.03 20.67 15.85 28.7 15.17 20.93 33.97 31.4 56.4 31.4 1.4-1.47 2.87-2.93 4.4-4.4 3.1-2.97 5.02-4.45 5.75-4.45 1 0 1.7.17 2.1.5l.65.5c.17-.17.25.58.25 2.25 0 .57-1.72 2.58-5.15 6.05-3.83 3.87-6.83 5.8-9 5.8-12.53 0-24.02-3.1-34.45-9.3 7.1 7.67 14.92 15.35 23.45 23.05 6.47 5.77 16.82 16.53 31.05 32.3 5.6 6.2 10.18 11.43 13.75 15.7-2.1-6.1-3.83-12.05-5.2-17.85-2.3-10-3.45-19.58-3.45-28.75 0-.13 0-1.7 0-4.7.4-2.97 1.57-4.45 3.5-4.45.97 0 1.73.13 2.3.4.53.23.85.35.95.35.17-.17.25.58.25 2.25 0 12.8.3 21.38.9 25.75 1.03 7.47 3.82 17.13 8.35 29 5.07 13.3 9.2 23.07 12.4 29.3 5.77 11.2 12.22 19.93 19.35 26.2 8.5 7.47 17.18 17.02 26.05 28.65 12.83 16.9 20.05 26.27 21.65 28.1 8.87 10.27 18.72 18.87 29.55 25.8 13.43 8.6 30.02 15.87 49.75 21.8h43.75c26.77-5.8 44.18-9.67 52.25-11.6 15.17-3.63 26.68-6.97 34.55-10 8.87-3.47 15.23-7.33 19.1-11.6 3.9-4.3 5.85-9.68 5.85-16.15 0-1.83-1.7-8.92-5.1-21.25-3.37-12.33-5.05-20.3-5.05-23.9 0-9.97 2.67-20.37 8-31.2 3.17-6.47 9.02-15.92 17.55-28.35 7.05-10.26 12.29-18.53 15.72-24.82l1.03 1.88c1.09 1.99 1.9 3.99 2.42 6-.77 1.29-1.58 2.61-2.45 3.97-1.79 2.81-3.81 5.8-6.05 8.98-1.43 2.04-2.95 4.16-4.58 6.35-8.83 11.87-14.68 20.52-17.55 25.95-5.3 10.1-7.95 20.27-7.95 30.5 0 2.77 1.67 9.98 5 21.65s5 19.75 5 24.25c0 7.6-1.7 13.83-5.1 18.7-3.6 5.1-9.68 9.6-18.25 13.5-8.2 3.77-20.07 7.58-35.6 11.45-12.77 3.17-31.87 7.28-57.3 12.35h-9.82-8.33-27.85c-15.6-4-31.22-11.3-46.85-21.9-13.27-9.03-23.28-17.95-30.05-26.75-6-7.73-14.33-17.13-25-28.2-16.23-16.87-24.85-25.83-25.85-26.9-12.4-13.5-22.72-29.33-30.95-47.5-.17 0-.35 0-.55 0-2.8 0-9.83-6.97-21.1-20.9-15.3-19-26.57-32.03-33.8-39.1-13.77-13.43-24.08-24.02-30.95-31.75-10.5-11.77-17.77-21.8-21.8-30.1-10.37-21.27-18.43-42.27-24.2-63-6.27-22.5-9.4-43.33-9.4-62.5 0-16.17 2.38-34.3 7.15-54.4 6.43-27.03 16.12-51.35 29.05-72.95 16.4-27.37 37.17-48.68 62.3-63.95 14.55-8.85 30.39-15.56 47.52-20.12 14.4-3.85 29.7-6.18 45.92-7 4.4-.22 8.87-.33 13.4-.33 5.57.03 9.18.52 10.85 1.45.5.3.83.75 1 1.35 8.13-.1 20.43 1.08 36.9 3.55 12.4 1.83 24.32 4.02 35.75 6.55 11.27 2.47 18.23 4.42 20.9 5.85 10.23 5.4 17.43 9.35 21.6 11.85 7.83 4.63 14.92 9.55 21.25 14.75 10.67 8.7 21.57 19.7 32.7 33 4.51 5.37 10.79 13.39 18.84 24.06zm-326.52 202.18c-1.57-5.77-4.97-9.67-10.2-11.7-1.03-.4-2.73-.88-5.1-1.45-1.47-.33-2.2-.7-2.2-1.1 0-2.33 1.35-3.53 4.05-3.6 2.77-.07 5.75 1.1 8.95 3.5 3.7 2.73 6.68 6.47 8.95 11.2 2.7 5.67 4.05 12.18 4.05 19.55.33 3.47.33 6.85 0 10.15-.67 6.57-2.67 9.85-6 9.85-1.03 0-1.73-.17-2.1-.5-.2-.17-.33-.33-.4-.5h-.25c-.17-.23-.25-.87-.25-1.9 0-.07.5-2.67 1.5-7.8 1-5.1 1.5-8.25 1.5-9.45 0-4.7-.84-10.12-2.5-16.25zm382.7-70.63c2.74-.06 5.27-.39 7.57-.98.29.34.6.69.93 1.05 1.8 2.03 3.02 3.9 3.65 5.6.64 1.69 1.04 3.86 1.2 6.52-1.21-.61-2.84-1.2-4.9-1.77-.66-.18-1.27-.33-1.85-.45-.33-1.05-.77-2.07-1.3-3.05-.97-1.73-2.67-3.97-5.1-6.7-.07-.07-.14-.14-.2-.22z"/><path d="m431.44 108.57c19.93 6.03 39.58 11.27 58.95 15.7s33.68 10.83 42.95 19.2 19.15 18.77 29.65 31.2c10.5 12.4 19.02 21.55 25.55 27.45l4 1.25-.3.25c-.43.17-1.17.25-2.2.25-1.9 0-7.52-2.3-16.85-6.9-4.73-2.33-9.7-4.87-14.9-7.6-3.63-1.57-11.43-3.53-23.4-5.9-15.13-3-28.03-6.03-38.7-9.1h-48.4c-46.67 2.47-79.82 16.08-99.45 40.85-12.77 16.1-19.15 35.82-19.15 59.15 0 11.37 1.67 21.35 5 29.95 1.77 4.6 2.92 7.9 3.45 9.9 1.03 4.13 1.55 8.9 1.55 14.3 0 1.7-.68 2.98-2.05 3.85-.67.43-2.23 1.02-4.7 1.75-5 1.47-8.08 4.13-9.25 8-.6 2.07-.78 5.13-.55 9.2.37 4.03.55 6.47.55 7.3 0 6.93.75 16.68 2.25 29.25 1.63 13.7 2.55 23.25 2.75 28.65.23 6.9 2.13 16.28 5.7 28.15 4.67 15.37 7.43 25.23 8.3 29.6 1.7 8.53 4.37 18.38 8 29.55 2.27 6.97 5.6 16.4 10 28.3 4.83 13.27 9.65 24.17 14.45 32.7 9.1 16.2 17.98 24.3 26.65 24.3.57 0 1.22-1.5 1.95-4.5.7-2.8 1.05-4.93 1.05-6.4 0-6.73-.5-17.1-1.5-31.1s-1.5-24.5-1.5-31.5c0-.6-.12-3.32-.35-8.15.03-5.37.67-10.15 1.9-14.35 3.87-13.23 13.18-19.85 27.95-19.85 3.73 0 9.75 3.18 18.05 9.55 10.9 8.93 19.68 15.97 26.35 21.1 12.13 9.33 23.18 16.48 33.15 21.45 13.37 6.6 26.18 10.1 38.45 10.5l25.75.5c2 2.5 4.23 4.73 6.7 6.7 4.83 3.87 10.43 5.8 16.8 5.8 7.87 0 14.72-1.22 20.55-3.65 3.97-1.67 8.28-4.37 12.95-8.1 5.4-4.3 9.07-7 11-8.1 4.4-2.43 9.28-3.65 14.65-3.65 6.2 0 11.02 1.42 14.45 4.25 2.7 2.23 4.05 4.73 4.05 7.5 0 4.77-1.83 9.27-5.5 13.5-2.2 2.53-6.23 6.38-12.1 11.55-5.4 5.2-9.42 10.52-12.05 15.95-3.67 7.5-6.73 15.03-9.2 22.6-2.43 7.57-2.58 13.13-.45 16.7 2.13 3.53 3.35 7.75 3.65 12.65.3 4.87 1.48 11.53 3.55 20s2.43 14.93 1.1 19.4c-1.87 6.23-7.37 11.43-16.5 15.6-9.13 4.13-34.02 12.93-74.65 26.4l-33.1 6c-15.13-.77-25.97-1.72-32.5-2.85-16.1-2.77-29.23-7.82-39.4-15.15-3.93-2.77-9.37-7.4-16.3-13.9-6.93-6.53-12.48-11-16.65-13.4-4.17-2.43-11.12-10.12-20.85-23.05s-18.53-22.68-26.4-29.25c-7.83-6.6-15.03-15.92-21.6-27.95-1.7-3.17-4.18-7.78-7.45-13.85-2.9-5.03-5.77-9.18-8.6-12.45-8.4-9.77-16.28-18.65-23.65-26.65-7.37-8.03-17.52-18.52-30.45-31.45-12.9-12.97-26.16-26.77-39.77-41.4-13.62-14.63-23.3-33.85-29.03-57.65s-10.41-44.83-14.05-63.1c-3.63-18.27-4.9-34.27-3.8-48s6.22-33.57 15.35-59.5c9.17-25.97 17.1-43.28 23.8-51.95 6.7-8.7 15.13-19.12 25.3-31.25 10.13-12.13 27.77-24.52 52.9-37.15s47.8-18.55 68-17.75l16.9 2.4v4.35h8l-1.55.95 1.55.2v.7z" fill="url(#e)"/><path d="m274.03 383.02c2.87 14.17 7.25 32.02 13.15 53.55 3.73 13.53 7.2 26 10.4 37.4 0 .3-.02.62-.05.95-.4-.27-1.03-.4-1.9-.4-.73 0-2.65 1.48-5.75 4.45-1.53 1.47-3 2.93-4.4 4.4-31.03 0-55.12-20.03-72.25-60.1-.4-.97-.82-1.93-1.25-2.9l-1.15-2.95c-1.4-3.73-2.78-7.58-4.15-11.55l-1.65-5.25c-1.9-6.37-3.58-12.98-5.05-19.85-2.33-10.83-3.5-18.08-3.5-21.75 0-5.63 1.33-11.27 4-16.9 4.13-8.83 10.52-13.25 19.15-13.25 14.53 0 27.07 8.75 37.6 26.25 2.2 3.63 5.3 9.65 9.3 18.05 2.63 5.47 4.45 8.2 5.45 8.2.84 0 1.52.55 2.05 1.65zm-25.5 6.25c-2.7.07-4.05 1.27-4.05 3.6 0 .4.73.77 2.2 1.1 2.37.57 4.07 1.05 5.1 1.45 5.23 2.03 8.63 5.93 10.2 11.7 1.67 6.13 2.5 11.55 2.5 16.25 0 1.2-.5 4.35-1.5 9.45-1 5.13-1.5 7.73-1.5 7.8 0 1.03.08 1.67.25 1.9h.25c.07.17.2.33.4.5.37.33 1.07.5 2.1.5 3.33 0 5.33-3.28 6-9.85.33-3.3.33-6.68 0-10.15 0-7.37-1.35-13.88-4.05-19.55-2.27-4.73-5.25-8.47-8.95-11.2-3.2-2.4-6.18-3.57-8.95-3.5z" fill="#f0bc97"/><path d="m297.53 474.92c.07.03.13.07.2.1l.65.5c.17-.17.25.58.25 2.25 0 .57-1.72 2.58-5.15 6.05-3.83 3.87-6.83 5.8-9 5.8-11.2 0-21.58-2.48-31.15-7.45-3.7-2.77-7.62-5.35-11.75-7.75-3.17-1.83-6.1-3.32-8.8-4.45-7.3-8.83-12.57-16.57-15.8-23.2-8.37-17.17-15.23-34.15-20.6-50.95-1.3-4.03-2.5-8.05-3.6-12.05-2.07-7.4-3.8-14.62-5.2-21.65.27-1.5 1.12-4.97 2.55-10.4 1.2-4.6 1.95-7.85 2.25-9.75.97-3.5 2.37-6.63 4.2-9.4 1.83-2.8 5.47-6.17 10.9-10.1 5.47-3.97 13.85-3.22 25.15 2.25 11.3 5.43 21.15 13.05 29.55 22.85 8.87 10.33 13.58 18.83 14.15 25.5.6 6.67.73 10.07.4 10.2s-1.08.33-2.25.6h-.05c-.13-.33-.27-.62-.4-.85-.53-1.1-1.22-1.65-2.05-1.65-1 0-2.82-2.73-5.45-8.2-4-8.4-7.1-14.42-9.3-18.05-10.53-17.5-23.07-26.25-37.6-26.25-8.63 0-15.02 4.42-19.15 13.25-2.67 5.63-4 11.27-4 16.9 0 3.67 1.17 10.92 3.5 21.75 1.47 6.87 3.15 13.48 5.05 19.85l1.65 5.25c1.37 3.97 2.75 7.82 4.15 11.55l1.15 2.95c.43.97.85 1.93 1.25 2.9 17.13 40.07 41.22 60.1 72.25 60.1 1.4-1.47 2.87-2.93 4.4-4.4 3.1-2.97 5.02-4.45 5.75-4.45.87 0 1.5.13 1.9.4zm-49-85.65c2.77-.07 5.75 1.1 8.95 3.5 3.7 2.73 6.68 6.47 8.95 11.2 2.7 5.67 4.05 12.18 4.05 19.55.33 3.47.33 6.85 0 10.15-.67 6.57-2.67 9.85-6 9.85-1.03 0-1.73-.17-2.1-.5-.2-.17-.33-.33-.4-.5h-.25c-.17-.23-.25-.87-.25-1.9 0-.07.5-2.67 1.5-7.8 1-5.1 1.5-8.25 1.5-9.45 0-4.7-.83-10.12-2.5-16.25-1.57-5.77-4.97-9.67-10.2-11.7-1.03-.4-2.73-.88-5.1-1.45-1.47-.33-2.2-.7-2.2-1.1.01-2.34 1.36-3.54 4.05-3.6z"/></g><use height="360.26" transform="matrix(1 0 0 -1 401.985 326.7152)" width="263.4" xlink:href="#a" y="-353.5"/><path d="m405 15.37c52.6 0 103.63 10.3 151.66 30.62 46.4 19.62 88.07 47.72 123.85 83.5s63.88 77.46 83.51 123.85c20.31 48.03 30.61 99.05 30.61 151.66s-10.3 103.63-30.61 151.66c-19.62 46.4-47.72 88.07-83.51 123.85s-77.46 63.88-123.85 83.51c-48.03 20.31-99.05 30.61-151.66 30.61s-103.63-10.3-151.66-30.61c-46.4-19.62-88.07-47.72-123.85-83.51s-63.88-77.46-83.5-123.85c-20.32-48.03-30.62-99.06-30.62-151.66s10.3-103.63 30.62-151.66c19.62-46.4 47.72-88.07 83.5-123.85s77.46-63.88 123.85-83.5c48.03-20.32 99.06-30.62 151.66-30.62m0-10c-220.71 0-399.63 178.92-399.63 399.63s178.92 399.63 399.63 399.63 399.63-178.92 399.63-399.63-178.92-399.63-399.63-399.63z" fill="#ddd"/><path d="m405 25c209.87 0 380 170.13 380 380s-170.13 380-380 380-380-170.13-380-380 170.13-380 380-380m0-10c-52.65 0-103.72 10.31-151.81 30.65-46.44 19.64-88.15 47.76-123.96 83.58s-63.93 77.52-83.58 123.96c-20.34 48.09-30.65 99.16-30.65 151.81s10.31 103.72 30.65 151.81c19.64 46.44 47.76 88.15 83.58 123.96 35.81 35.81 77.52 63.93 123.96 83.58 48.09 20.34 99.16 30.65 151.81 30.65s103.72-10.31 151.81-30.65c46.44-19.64 88.15-47.76 123.96-83.58 35.81-35.81 63.93-77.52 83.58-123.96 20.34-48.09 30.65-99.16 30.65-151.81s-10.31-103.72-30.65-151.81c-19.64-46.44-47.76-88.15-83.58-123.96-35.81-35.81-77.52-63.93-123.96-83.58-48.09-20.34-99.16-30.65-151.81-30.65z" fill="#fff"/></svg>