<svg id="Layer_1" data-name="Layer 1" xmlns="http://www.w3.org/2000/svg" viewBox="0 0 451 512"><defs><style>.cls-1{fill:#3563ab;}.cls-2{fill:#d5ea3f;}.cls-3{fill:#fff;}.cls-4{fill:#eee;}</style></defs><title>ezwc</title><path class="cls-1" d="M71,460,30,0H481L440,460,255,512" transform="translate(-30)"/><polygon class="cls-2" points="226 0 226 511.72 410 460 451 0 226 0"/><path class="cls-3" d="M358,412H160.44V93.75H348.06V144.1H210.79v78.38h92.62v51.3H210.79V360.7H358Z" transform="translate(-30)"/><polygon class="cls-4" points="226 360.7 180.79 360.7 180.79 273.77 226 273.77 226 222.47 180.79 222.47 180.79 144.1 226 144.1 226 93.75 130.44 93.75 130.44 412 226 412 226 360.7"/></svg>