<svg id="Layer_2" data-name="Layer 2" xmlns="http://www.w3.org/2000/svg" xmlns:xlink="http://www.w3.org/1999/xlink" width="124.64" height="140" viewBox="0 0 124.64 140"><defs><style>.cls-1,.cls-2{opacity:0.95;isolation:isolate;}.cls-1{fill:url(#linear-gradient);}.cls-2{fill:url(#linear-gradient-2);}.cls-3{fill:#fff;}</style><linearGradient id="linear-gradient" y1="69.84" x2="62.32" y2="69.84" gradientUnits="userSpaceOnUse"><stop offset="0" stop-color="#2a3b8f"/><stop offset="1" stop-color="#29abe2"/></linearGradient><linearGradient id="linear-gradient-2" x1="62.32" y1="70.16" x2="124.64" y2="70.16" gradientUnits="userSpaceOnUse"><stop offset="0" stop-color="#b4d44e"/><stop offset="1" stop-color="#e7f716"/></linearGradient></defs><title>ezwc-shield</title><polygon class="cls-1" points="0 17.78 11.24 114.5 62.32 139.69 62.32 0 0 17.78"/><polygon class="cls-2" points="124.64 18.09 113.4 114.81 62.32 140 62.32 0.31 124.64 18.09"/><path class="cls-3" d="M33.9,58.61l.58-31,26.18-4v6.87L46.71,32.09l-.07,6.44,13.38-1v6.8l-13.44.54-.08,7.73,15.14.1v7.23Z" transform="translate(-12.68 -4.75)"/><path class="cls-3" d="M31.63,103.64l.12-6L46.22,79.33l-12.8-2.15.11-5.93,28.3,3.64v6.69L44.49,101.42l16.48,5v7.32Z" transform="translate(-12.68 -4.75)"/><path class="cls-3" d="M91.2,60,83.84,22.38,96.9,24.5,100.33,47l3.32-21.41,10.26,1.67,2.74,20.52,2.66-19.64,9.17,1.49-4.94,29.75-12,.24-2.71-16-2.67,16.07Z" transform="translate(-12.68 -4.75)"/><path class="cls-3" d="M95.63,108.06a5.51,5.51,0,0,1-4.12-5.67V85.86a10.45,10.45,0,0,1,3.73-8.44c2.41-2,6.07-3.21,10.83-3.64,4-.36,7,0,9.28,1.07a5.2,5.2,0,0,1,3.27,5.06v5.32l-10,1.66V82.05a2.36,2.36,0,0,0-.56-1.87,2.59,2.59,0,0,0-2-.29,3,3,0,0,0-2,.87,3,3,0,0,0-.56,1.92V99.56a2,2,0,0,0,.65,1.78,2.44,2.44,0,0,0,1.94.14,2.92,2.92,0,0,0,2.52-3.09V92.48l10.14-2v5.82c0,5.17-4.09,8.89-12.91,11.33C101.71,108.79,98.29,108.94,95.63,108.06Z" transform="translate(-12.68 -4.75)"/></svg>